<svg xmlns="http://www.w3.org/2000/svg" xmlns:xlink="http://www.w3.org/1999/xlink" width="500" zoomAndPan="magnify" viewBox="0 0 375 374.999991" height="500" preserveAspectRatio="xMidYMid meet" version="1.0"><defs><g/><clipPath id="0a07463207"><path d="M 3.335938 3.335938 L 371.429688 3.335938 L 371.429688 371.429688 L 3.335938 371.429688 Z M 3.335938 3.335938 " clip-rule="nonzero"/></clipPath><clipPath id="538646282a"><path d="M 6.921875 7.113281 L 368.078125 7.113281 L 368.078125 368.265625 L 6.921875 368.265625 Z M 6.921875 7.113281 " clip-rule="nonzero"/></clipPath><clipPath id="cf29c2b34d"><path d="M 187.5 7.113281 C 87.769531 7.113281 6.921875 87.960938 6.921875 187.691406 C 6.921875 287.421875 87.769531 368.265625 187.5 368.265625 C 287.230469 368.265625 368.078125 287.421875 368.078125 187.691406 C 368.078125 87.960938 287.230469 7.113281 187.5 7.113281 Z M 187.5 7.113281 " clip-rule="nonzero"/></clipPath><clipPath id="02e49f8285"><path d="M 11.671875 11.671875 L 363.496094 11.671875 L 363.496094 363.496094 L 11.671875 363.496094 Z M 11.671875 11.671875 " clip-rule="nonzero"/></clipPath><clipPath id="d86a18b9f6"><path d="M 77 82.605469 L 304 82.605469 L 304 280.886719 L 77 280.886719 Z M 77 82.605469 " clip-rule="nonzero"/></clipPath><clipPath id="e57238e587"><path d="M 134.265625 42 L 248 42 L 248 107.757812 L 134.265625 107.757812 Z M 134.265625 42 " clip-rule="nonzero"/></clipPath></defs><g clip-path="url(#0a07463207)"><path fill="#e8dc08" d="M 371.652344 187.496094 C 371.652344 190.507812 371.578125 193.519531 371.429688 196.53125 C 371.285156 199.542969 371.0625 202.546875 370.765625 205.546875 C 370.472656 208.546875 370.101562 211.535156 369.660156 214.515625 C 369.21875 217.5 368.703125 220.46875 368.113281 223.421875 C 367.527344 226.378906 366.867188 229.320312 366.132812 232.242188 C 365.402344 235.164062 364.597656 238.070312 363.722656 240.953125 C 362.847656 243.835938 361.902344 246.699219 360.886719 249.535156 C 359.871094 252.375 358.789062 255.183594 357.636719 257.96875 C 356.480469 260.753906 355.261719 263.507812 353.972656 266.234375 C 352.683594 268.957031 351.328125 271.648438 349.90625 274.308594 C 348.488281 276.964844 347.003906 279.585938 345.453125 282.171875 C 343.902344 284.757812 342.292969 287.300781 340.617188 289.808594 C 338.941406 292.3125 337.207031 294.777344 335.414062 297.199219 C 333.617188 299.617188 331.761719 301.992188 329.851562 304.324219 C 327.9375 306.652344 325.972656 308.933594 323.949219 311.167969 C 321.921875 313.402344 319.847656 315.582031 317.714844 317.714844 C 315.582031 319.847656 313.402344 321.921875 311.167969 323.949219 C 308.933594 325.972656 306.652344 327.9375 304.324219 329.851562 C 301.992188 331.761719 299.617188 333.617188 297.199219 335.414062 C 294.777344 337.207031 292.3125 338.941406 289.808594 340.617188 C 287.300781 342.292969 284.757812 343.902344 282.171875 345.453125 C 279.585938 347.003906 276.964844 348.488281 274.308594 349.90625 C 271.648438 351.328125 268.957031 352.683594 266.234375 353.972656 C 263.507812 355.261719 260.753906 356.480469 257.96875 357.636719 C 255.183594 358.789062 252.375 359.871094 249.535156 360.886719 C 246.699219 361.902344 243.835938 362.847656 240.953125 363.722656 C 238.070312 364.597656 235.164062 365.402344 232.242188 366.132812 C 229.320312 366.867188 226.378906 367.527344 223.421875 368.113281 C 220.46875 368.703125 217.5 369.21875 214.515625 369.660156 C 211.535156 370.101562 208.546875 370.472656 205.546875 370.765625 C 202.546875 371.0625 199.542969 371.285156 196.53125 371.429688 C 193.519531 371.578125 190.507812 371.652344 187.496094 371.652344 C 184.480469 371.652344 181.46875 371.578125 178.460938 371.429688 C 175.449219 371.285156 172.445312 371.0625 169.445312 370.765625 C 166.445312 370.472656 163.457031 370.101562 160.472656 369.660156 C 157.492188 369.21875 154.523438 368.703125 151.566406 368.113281 C 148.613281 367.527344 145.671875 366.867188 142.75 366.132812 C 139.824219 365.402344 136.921875 364.597656 134.039062 363.722656 C 131.152344 362.847656 128.292969 361.902344 125.453125 360.886719 C 122.617188 359.871094 119.804688 358.789062 117.019531 357.636719 C 114.238281 356.480469 111.480469 355.261719 108.757812 353.972656 C 106.035156 352.683594 103.34375 351.328125 100.683594 349.90625 C 98.027344 348.488281 95.40625 347.003906 92.820312 345.453125 C 90.234375 343.902344 87.6875 342.292969 85.183594 340.617188 C 82.675781 338.941406 80.214844 337.207031 77.792969 335.414062 C 75.371094 333.617188 72.996094 331.761719 70.667969 329.851562 C 68.335938 327.9375 66.054688 325.972656 63.824219 323.945312 C 61.589844 321.921875 59.40625 319.847656 57.277344 317.714844 C 55.144531 315.582031 53.066406 313.402344 51.042969 311.167969 C 49.019531 308.933594 47.050781 306.652344 45.140625 304.324219 C 43.226562 301.992188 41.375 299.617188 39.578125 297.199219 C 37.785156 294.777344 36.046875 292.3125 34.375 289.808594 C 32.699219 287.300781 31.085938 284.757812 29.539062 282.171875 C 27.988281 279.585938 26.503906 276.964844 25.082031 274.308594 C 23.664062 271.648438 22.308594 268.957031 21.019531 266.234375 C 19.730469 263.507812 18.507812 260.753906 17.355469 257.96875 C 16.203125 255.183594 15.117188 252.375 14.101562 249.535156 C 13.085938 246.699219 12.140625 243.835938 11.269531 240.953125 C 10.394531 238.070312 9.589844 235.164062 8.855469 232.242188 C 8.125 229.320312 7.464844 226.378906 6.875 223.421875 C 6.289062 220.46875 5.773438 217.5 5.332031 214.515625 C 4.890625 211.535156 4.519531 208.546875 4.226562 205.546875 C 3.929688 202.546875 3.707031 199.542969 3.558594 196.53125 C 3.410156 193.519531 3.335938 190.507812 3.335938 187.496094 C 3.335938 184.480469 3.410156 181.46875 3.558594 178.460938 C 3.707031 175.449219 3.929688 172.445312 4.226562 169.445312 C 4.519531 166.445312 4.890625 163.457031 5.332031 160.472656 C 5.773438 157.492188 6.289062 154.523438 6.875 151.566406 C 7.464844 148.613281 8.125 145.671875 8.855469 142.75 C 9.589844 139.824219 10.394531 136.921875 11.269531 134.039062 C 12.140625 131.152344 13.085938 128.292969 14.101562 125.453125 C 15.117188 122.617188 16.203125 119.804688 17.355469 117.019531 C 18.507812 114.238281 19.730469 111.484375 21.019531 108.757812 C 22.308594 106.035156 23.664062 103.34375 25.082031 100.683594 C 26.503906 98.027344 27.988281 95.40625 29.539062 92.820312 C 31.085938 90.234375 32.699219 87.6875 34.375 85.183594 C 36.046875 82.675781 37.785156 80.214844 39.578125 77.792969 C 41.375 75.371094 43.226562 72.996094 45.140625 70.667969 C 47.050781 68.335938 49.019531 66.054688 51.042969 63.824219 C 53.066406 61.589844 55.144531 59.40625 57.277344 57.277344 C 59.40625 55.144531 61.589844 53.066406 63.824219 51.042969 C 66.054688 49.019531 68.335938 47.050781 70.667969 45.140625 C 72.996094 43.226562 75.371094 41.375 77.792969 39.578125 C 80.214844 37.785156 82.675781 36.046875 85.183594 34.375 C 87.6875 32.699219 90.234375 31.085938 92.820312 29.539062 C 95.40625 27.988281 98.027344 26.503906 100.683594 25.082031 C 103.34375 23.664062 106.035156 22.308594 108.757812 21.019531 C 111.480469 19.730469 114.238281 18.507812 117.019531 17.355469 C 119.804688 16.203125 122.617188 15.117188 125.453125 14.101562 C 128.292969 13.085938 131.152344 12.140625 134.039062 11.269531 C 136.921875 10.394531 139.824219 9.589844 142.75 8.855469 C 145.671875 8.125 148.613281 7.464844 151.566406 6.875 C 154.523438 6.289062 157.492188 5.773438 160.472656 5.332031 C 163.457031 4.890625 166.445312 4.519531 169.445312 4.226562 C 172.445312 3.929688 175.449219 3.707031 178.460938 3.558594 C 181.46875 3.410156 184.480469 3.335938 187.496094 3.335938 C 190.507812 3.335938 193.519531 3.410156 196.53125 3.558594 C 199.542969 3.707031 202.546875 3.929688 205.546875 4.226562 C 208.546875 4.519531 211.535156 4.890625 214.515625 5.332031 C 217.5 5.773438 220.46875 6.289062 223.421875 6.875 C 226.378906 7.464844 229.320312 8.125 232.242188 8.855469 C 235.164062 9.589844 238.070312 10.394531 240.953125 11.269531 C 243.835938 12.140625 246.699219 13.085938 249.535156 14.101562 C 252.375 15.117188 255.183594 16.203125 257.96875 17.355469 C 260.753906 18.507812 263.507812 19.730469 266.234375 21.019531 C 268.957031 22.308594 271.648438 23.664062 274.308594 25.082031 C 276.964844 26.503906 279.585938 27.988281 282.171875 29.539062 C 284.757812 31.085938 287.300781 32.699219 289.808594 34.375 C 292.3125 36.046875 294.777344 37.785156 297.199219 39.578125 C 299.617188 41.375 301.992188 43.226562 304.324219 45.140625 C 306.652344 47.050781 308.933594 49.019531 311.167969 51.042969 C 313.402344 53.066406 315.582031 55.144531 317.714844 57.277344 C 319.847656 59.40625 321.921875 61.589844 323.949219 63.824219 C 325.972656 66.054688 327.9375 68.335938 329.851562 70.667969 C 331.761719 72.996094 333.617188 75.371094 335.414062 77.792969 C 337.207031 80.214844 338.941406 82.675781 340.617188 85.183594 C 342.292969 87.6875 343.902344 90.234375 345.453125 92.820312 C 347.003906 95.40625 348.488281 98.027344 349.90625 100.683594 C 351.328125 103.34375 352.683594 106.035156 353.972656 108.757812 C 355.261719 111.484375 356.480469 114.238281 357.636719 117.019531 C 358.789062 119.804688 359.871094 122.617188 360.886719 125.453125 C 361.902344 128.292969 362.847656 131.152344 363.722656 134.039062 C 364.597656 136.921875 365.402344 139.824219 366.132812 142.75 C 366.867188 145.671875 367.527344 148.613281 368.113281 151.566406 C 368.703125 154.523438 369.21875 157.492188 369.660156 160.472656 C 370.101562 163.457031 370.472656 166.445312 370.765625 169.445312 C 371.0625 172.445312 371.285156 175.449219 371.429688 178.460938 C 371.578125 181.46875 371.652344 184.480469 371.652344 187.496094 Z M 371.652344 187.496094 " fill-opacity="1" fill-rule="nonzero"/></g><g clip-path="url(#538646282a)"><g clip-path="url(#cf29c2b34d)"><path fill="#af2119" d="M 6.921875 7.113281 L 368.078125 7.113281 L 368.078125 368.265625 L 6.921875 368.265625 Z M 6.921875 7.113281 " fill-opacity="1" fill-rule="nonzero"/></g></g><g clip-path="url(#02e49f8285)"><path fill="#e8dc08" d="M 187.4375 363.320312 C 90.570312 363.320312 11.671875 284.421875 11.671875 187.4375 C 11.671875 90.453125 90.570312 11.671875 187.4375 11.671875 C 284.304688 11.671875 363.203125 90.570312 363.203125 187.4375 C 363.320312 284.421875 284.421875 363.320312 187.4375 363.320312 Z M 187.4375 14.648438 C 92.117188 14.648438 14.648438 92.117188 14.648438 187.4375 C 14.648438 282.757812 92.238281 360.347656 187.4375 360.347656 C 282.640625 360.347656 360.347656 282.757812 360.347656 187.4375 C 360.347656 92.117188 282.757812 14.648438 187.4375 14.648438 Z M 187.4375 14.648438 " fill-opacity="1" fill-rule="nonzero"/></g><path fill="#e8dc08" d="M 272.363281 112.394531 C 272.511719 112.394531 272.648438 112.449219 272.75 112.554688 L 273.078125 112.882812 C 273.289062 113.089844 273.289062 113.445312 273.078125 113.652344 L 251.957031 134.773438 C 251.753906 134.976562 251.390625 134.976562 251.1875 134.773438 L 250.859375 134.445312 C 250.648438 134.234375 250.648438 133.882812 250.859375 133.675781 L 271.980469 112.554688 C 272.082031 112.449219 272.21875 112.394531 272.363281 112.394531 Z M 249.539062 135.761719 L 249.871094 136.089844 C 250.324219 136.546875 250.925781 136.796875 251.574219 136.796875 C 252.21875 136.796875 252.824219 136.546875 253.277344 136.089844 L 274.398438 114.972656 C 275.335938 114.03125 275.335938 112.503906 274.394531 111.5625 L 274.070312 111.234375 C 273.613281 110.78125 273.007812 110.53125 272.363281 110.53125 C 271.722656 110.53125 271.113281 110.78125 270.660156 111.234375 L 249.539062 132.355469 C 248.601562 133.296875 248.601562 134.824219 249.539062 135.761719 " fill-opacity="1" fill-rule="nonzero"/><path fill="#e8dc08" d="M 260.597656 100.84375 L 260.933594 101.164062 C 261.140625 101.367188 261.152344 101.71875 260.949219 101.929688 L 240.492188 123.699219 C 240.351562 123.847656 240.179688 123.871094 240.09375 123.871094 C 239.949219 123.871094 239.816406 123.816406 239.714844 123.71875 L 239.382812 123.394531 C 239.171875 123.195312 239.164062 122.84375 239.363281 122.632812 L 259.824219 100.863281 C 259.964844 100.710938 260.132812 100.6875 260.222656 100.6875 C 260.363281 100.6875 260.496094 100.742188 260.597656 100.84375 Z M 238.417969 125.058594 C 238.871094 125.496094 239.464844 125.734375 240.09375 125.734375 C 240.753906 125.734375 241.394531 125.457031 241.847656 124.976562 L 262.308594 103.207031 C 263.207031 102.25 263.167969 100.734375 262.226562 99.824219 L 261.894531 99.503906 C 261.445312 99.066406 260.847656 98.824219 260.222656 98.824219 C 259.558594 98.824219 258.917969 99.101562 258.464844 99.585938 L 238.003906 121.355469 C 237.105469 122.308594 237.144531 123.828125 238.085938 124.738281 L 238.417969 125.058594 " fill-opacity="1" fill-rule="nonzero"/><path fill="#e8dc08" d="M 284.074219 124.535156 C 284.164062 124.535156 284.332031 124.558594 284.46875 124.699219 L 284.789062 125.035156 C 284.890625 125.140625 284.945312 125.277344 284.941406 125.425781 C 284.9375 125.574219 284.878906 125.707031 284.769531 125.808594 L 263 146.269531 C 262.902344 146.363281 262.769531 146.414062 262.628906 146.414062 C 262.539062 146.414062 262.375 146.394531 262.234375 146.25 L 261.914062 145.917969 C 261.8125 145.8125 261.757812 145.671875 261.761719 145.527344 C 261.765625 145.378906 261.824219 145.242188 261.933594 145.140625 L 283.703125 124.683594 C 283.800781 124.589844 283.933594 124.535156 284.074219 124.535156 Z M 259.898438 145.480469 C 259.882812 146.128906 260.121094 146.746094 260.574219 147.214844 L 260.894531 147.546875 C 261.347656 148.011719 261.976562 148.277344 262.628906 148.277344 C 263.246094 148.277344 263.832031 148.046875 264.277344 147.628906 L 286.046875 127.167969 C 286.519531 126.722656 286.789062 126.121094 286.804688 125.46875 C 286.820312 124.820312 286.582031 124.207031 286.128906 123.738281 L 285.808594 123.40625 C 285.359375 122.9375 284.726562 122.675781 284.074219 122.675781 C 283.457031 122.675781 282.871094 122.902344 282.425781 123.324219 L 260.65625 143.785156 C 260.183594 144.230469 259.914062 144.832031 259.898438 145.480469 " fill-opacity="1" fill-rule="nonzero"/><g clip-path="url(#d86a18b9f6)"><path fill="#e8dc08" d="M 182.515625 207.773438 L 179.5625 214.9375 L 117.445312 277.054688 C 116.269531 278.234375 114.695312 278.882812 113.011719 278.882812 C 111.332031 278.882812 109.757812 278.234375 108.578125 277.054688 C 106.132812 274.609375 106.132812 270.628906 108.578125 268.1875 L 112.769531 263.996094 L 116.636719 267.863281 C 116.816406 268.042969 117.054688 268.132812 117.292969 268.132812 C 117.53125 268.132812 117.769531 268.042969 117.953125 267.863281 C 118.316406 267.496094 118.316406 266.910156 117.953125 266.542969 L 114.085938 262.675781 L 170.164062 206.597656 L 173.269531 209.699219 C 173.453125 209.882812 173.691406 209.972656 173.925781 209.972656 C 174.167969 209.972656 174.40625 209.882812 174.585938 209.699219 C 174.953125 209.335938 174.953125 208.746094 174.585938 208.382812 L 171.8125 205.609375 L 177.859375 203.117188 C 177.972656 203.070312 178.074219 203.003906 178.164062 202.917969 L 184.402344 196.675781 L 188.953125 201.230469 L 182.714844 207.46875 C 182.628906 207.558594 182.558594 207.660156 182.515625 207.773438 Z M 220.546875 160.53125 C 220.640625 160.4375 220.730469 160.335938 220.824219 160.238281 L 223.109375 162.523438 C 223.289062 162.703125 223.527344 162.796875 223.769531 162.796875 C 224.007812 162.796875 224.246094 162.703125 224.425781 162.523438 C 224.789062 162.160156 224.789062 161.570312 224.425781 161.203125 L 222.0625 158.84375 C 225.558594 154.515625 227.21875 149.003906 226.652344 143.398438 L 226.296875 139.882812 C 225.511719 132.121094 227.660156 124.148438 232.347656 117.4375 L 251.867188 89.488281 C 254.027344 86.394531 257.617188 84.472656 261.234375 84.472656 C 262.121094 84.472656 262.996094 84.585938 263.835938 84.8125 C 282.132812 89.671875 295.960938 103.5 300.820312 121.796875 C 301.988281 126.183594 300.109375 130.996094 296.144531 133.765625 L 268.195312 153.285156 C 262.460938 157.289062 255.605469 159.492188 248.886719 159.492188 C 247.839844 159.492188 246.78125 159.441406 245.75 159.335938 L 242.234375 158.980469 C 241.527344 158.910156 240.808594 158.871094 240.097656 158.871094 C 234.433594 158.871094 229.105469 161.078125 225.101562 165.085938 L 196.144531 194.042969 L 191.589844 189.488281 Z M 79.722656 121.796875 C 84.585938 103.5 98.414062 89.671875 116.710938 84.8125 C 117.550781 84.585938 118.425781 84.472656 119.308594 84.472656 C 122.925781 84.472656 126.519531 86.394531 128.679688 89.488281 L 148.199219 117.4375 C 152.886719 124.148438 155.035156 132.121094 154.25 139.882812 L 153.894531 143.398438 C 153.324219 149.003906 154.988281 154.515625 158.484375 158.84375 L 156.117188 161.203125 C 155.753906 161.570312 155.753906 162.160156 156.117188 162.523438 C 156.300781 162.703125 156.539062 162.796875 156.777344 162.796875 C 157.015625 162.796875 157.253906 162.703125 157.4375 162.523438 L 159.71875 160.238281 C 159.816406 160.335938 159.902344 160.4375 160 160.53125 L 202.382812 202.917969 C 202.46875 203.003906 202.574219 203.070312 202.6875 203.117188 L 208.734375 205.609375 L 205.960938 208.382812 C 205.59375 208.746094 205.59375 209.335938 205.960938 209.699219 C 206.140625 209.882812 206.378906 209.972656 206.617188 209.972656 C 206.855469 209.972656 207.09375 209.882812 207.277344 209.699219 L 210.378906 206.597656 L 266.460938 262.675781 L 262.59375 266.542969 C 262.230469 266.910156 262.230469 267.496094 262.59375 267.863281 C 262.777344 268.042969 263.011719 268.132812 263.25 268.132812 C 263.492188 268.132812 263.730469 268.042969 263.910156 267.863281 L 267.777344 263.996094 L 271.96875 268.1875 C 274.414062 270.628906 274.414062 274.609375 271.96875 277.054688 C 270.789062 278.234375 269.214844 278.882812 267.53125 278.882812 C 265.851562 278.882812 264.277344 278.234375 263.097656 277.054688 L 200.980469 214.9375 L 198.03125 207.773438 C 197.984375 207.660156 197.914062 207.558594 197.828125 207.46875 L 155.445312 165.085938 C 151.4375 161.078125 146.113281 158.871094 140.449219 158.871094 C 139.738281 158.871094 139.019531 158.910156 138.3125 158.980469 L 134.796875 159.335938 C 133.761719 159.441406 132.707031 159.492188 131.660156 159.492188 C 124.941406 159.492188 118.082031 157.289062 112.351562 153.285156 L 84.402344 133.765625 C 80.4375 130.996094 78.554688 126.183594 79.722656 121.796875 Z M 83.335938 135.292969 L 111.285156 154.8125 C 117.414062 159.09375 124.460938 161.355469 131.660156 161.355469 C 132.769531 161.355469 133.886719 161.300781 134.984375 161.191406 L 138.5 160.835938 C 139.144531 160.769531 139.796875 160.734375 140.449219 160.734375 C 145.613281 160.734375 150.472656 162.75 154.128906 166.402344 L 183.082031 195.359375 L 176.976562 201.464844 L 169.820312 204.414062 C 169.816406 204.414062 169.816406 204.417969 169.8125 204.417969 C 169.796875 204.421875 169.785156 204.433594 169.769531 204.4375 C 169.730469 204.457031 169.6875 204.476562 169.652344 204.503906 C 169.597656 204.535156 169.550781 204.574219 169.507812 204.621094 L 107.261719 266.867188 C 104.089844 270.039062 104.089844 275.199219 107.261719 278.371094 C 108.789062 279.902344 110.832031 280.746094 113.011719 280.746094 C 115.191406 280.746094 117.234375 279.902344 118.765625 278.371094 L 181.011719 216.125 C 181.097656 216.039062 181.167969 215.9375 181.214844 215.820312 L 184.164062 208.652344 L 190.273438 202.546875 L 196.378906 208.652344 L 199.328125 215.820312 C 199.375 215.9375 199.445312 216.039062 199.535156 216.125 L 261.78125 278.371094 C 263.3125 279.902344 265.355469 280.746094 267.53125 280.746094 C 269.710938 280.746094 271.753906 279.902344 273.285156 278.371094 C 276.457031 275.199219 276.457031 270.039062 273.285156 266.867188 L 211.039062 204.621094 C 210.996094 204.574219 210.945312 204.535156 210.894531 204.503906 C 210.859375 204.476562 210.816406 204.457031 210.777344 204.4375 C 210.761719 204.433594 210.746094 204.421875 210.734375 204.417969 L 210.730469 204.417969 C 210.730469 204.417969 210.730469 204.414062 210.730469 204.414062 L 203.570312 201.464844 L 197.460938 195.359375 L 226.417969 166.402344 C 230.074219 162.75 234.929688 160.734375 240.097656 160.734375 C 240.746094 160.734375 241.402344 160.769531 242.046875 160.835938 L 245.558594 161.191406 C 246.65625 161.300781 247.777344 161.355469 248.886719 161.355469 C 256.085938 161.355469 263.132812 159.09375 269.261719 154.8125 L 297.210938 135.292969 C 301.816406 132.078125 303.992188 126.460938 302.621094 121.316406 C 297.585938 102.367188 283.265625 88.046875 264.316406 83.007812 C 263.316406 82.746094 262.28125 82.609375 261.234375 82.609375 C 256.953125 82.609375 252.878906 84.785156 250.339844 88.421875 L 230.820312 116.371094 C 225.878906 123.449219 223.613281 131.863281 224.441406 140.074219 L 224.796875 143.585938 C 225.339844 148.941406 223.648438 154.203125 220.144531 158.226562 C 220.140625 158.230469 220.140625 158.230469 220.136719 158.234375 C 220.113281 158.257812 220.097656 158.285156 220.074219 158.308594 C 219.804688 158.617188 219.523438 158.921875 219.226562 159.214844 L 190.273438 188.171875 L 161.316406 159.214844 C 161.023438 158.921875 160.742188 158.617188 160.46875 158.308594 C 160.449219 158.285156 160.433594 158.257812 160.410156 158.234375 C 160.40625 158.230469 160.402344 158.230469 160.402344 158.226562 C 156.894531 154.203125 155.207031 148.941406 155.746094 143.585938 L 156.101562 140.074219 C 156.933594 131.863281 154.667969 123.449219 149.726562 116.371094 L 130.207031 88.421875 C 127.664062 84.785156 123.589844 82.609375 119.308594 82.609375 C 118.261719 82.609375 117.226562 82.746094 116.230469 83.007812 C 97.28125 88.046875 82.957031 102.367188 77.921875 121.316406 C 76.554688 126.460938 78.730469 132.078125 83.335938 135.292969 " fill-opacity="1" fill-rule="nonzero"/></g><path fill="#e8dc08" d="M 107.46875 112.882812 L 107.792969 112.554688 C 107.898438 112.449219 108.035156 112.394531 108.179688 112.394531 C 108.328125 112.394531 108.464844 112.449219 108.566406 112.554688 L 129.6875 133.675781 C 129.894531 133.882812 129.894531 134.234375 129.6875 134.445312 L 129.359375 134.773438 C 129.15625 134.976562 128.792969 134.980469 128.585938 134.773438 L 107.46875 113.652344 C 107.257812 113.445312 107.257812 113.089844 107.46875 112.882812 Z M 127.269531 136.089844 C 127.722656 136.546875 128.328125 136.796875 128.972656 136.796875 C 129.617188 136.796875 130.222656 136.546875 130.675781 136.089844 L 131.003906 135.761719 C 131.941406 134.824219 131.941406 133.296875 131.003906 132.355469 L 109.882812 111.234375 C 109.429688 110.78125 108.824219 110.53125 108.179688 110.53125 C 107.535156 110.53125 106.929688 110.78125 106.476562 111.234375 L 106.148438 111.5625 C 105.207031 112.503906 105.207031 114.03125 106.148438 114.972656 L 127.269531 136.089844 " fill-opacity="1" fill-rule="nonzero"/><path fill="#e8dc08" d="M 119.613281 101.164062 L 119.945312 100.84375 C 120.050781 100.742188 120.183594 100.6875 120.324219 100.6875 C 120.414062 100.6875 120.582031 100.710938 120.722656 100.863281 L 141.183594 122.632812 C 141.382812 122.84375 141.375 123.195312 141.167969 123.394531 L 140.832031 123.71875 C 140.730469 123.816406 140.59375 123.871094 140.453125 123.871094 C 140.363281 123.871094 140.195312 123.847656 140.054688 123.699219 L 119.59375 101.929688 C 119.394531 101.71875 119.402344 101.367188 119.613281 101.164062 Z M 138.699219 124.976562 C 139.152344 125.457031 139.792969 125.734375 140.453125 125.734375 C 141.082031 125.734375 141.675781 125.496094 142.125 125.058594 L 142.460938 124.738281 C 143.402344 123.828125 143.4375 122.308594 142.542969 121.355469 L 122.078125 99.585938 C 121.625 99.101562 120.988281 98.824219 120.324219 98.824219 C 119.695312 98.824219 119.101562 99.066406 118.652344 99.503906 L 118.316406 99.824219 C 117.375 100.734375 117.339844 102.25 118.234375 103.207031 L 138.699219 124.976562 " fill-opacity="1" fill-rule="nonzero"/><path fill="#e8dc08" d="M 95.753906 125.035156 L 96.078125 124.699219 C 96.214844 124.558594 96.382812 124.535156 96.472656 124.535156 C 96.613281 124.535156 96.746094 124.589844 96.84375 124.683594 L 118.613281 145.140625 C 118.71875 145.242188 118.78125 145.378906 118.785156 145.527344 C 118.789062 145.671875 118.734375 145.8125 118.632812 145.917969 L 118.308594 146.25 C 118.171875 146.394531 118.003906 146.414062 117.914062 146.414062 C 117.777344 146.414062 117.644531 146.363281 117.542969 146.269531 L 95.773438 125.808594 C 95.667969 125.707031 95.605469 125.574219 95.605469 125.425781 C 95.597656 125.277344 95.652344 125.140625 95.753906 125.035156 Z M 116.265625 147.628906 C 116.714844 148.046875 117.300781 148.277344 117.914062 148.277344 C 118.566406 148.277344 119.199219 148.011719 119.648438 147.546875 L 119.972656 147.214844 C 120.421875 146.746094 120.664062 146.132812 120.648438 145.480469 C 120.632812 144.832031 120.363281 144.230469 119.890625 143.785156 L 98.121094 123.324219 C 97.671875 122.902344 97.089844 122.675781 96.472656 122.675781 C 95.820312 122.675781 95.1875 122.9375 94.738281 123.40625 L 94.414062 123.738281 C 93.964844 124.207031 93.722656 124.820312 93.738281 125.46875 C 93.753906 126.117188 94.023438 126.722656 94.496094 127.167969 L 116.265625 147.628906 " fill-opacity="1" fill-rule="nonzero"/><g clip-path="url(#e57238e587)"><path fill="#e8dc08" d="M 245.488281 50.320312 C 243.320312 48.695312 239.300781 49.6875 239.097656 52.734375 C 239.097656 52.847656 239.121094 52.9375 239.167969 53.03125 C 239.007812 54.292969 239.347656 55.625 240.160156 56.617188 C 237.40625 57.273438 234.921875 59.257812 232.507812 60.589844 C 229.59375 62.195312 227.113281 64.316406 224.582031 66.460938 C 222.304688 68.425781 219.957031 70.296875 217.855469 72.464844 C 217.066406 73.277344 216.164062 74.226562 215.394531 75.265625 C 215.375 74.992188 215.328125 74.722656 215.304688 74.472656 C 215.101562 72.421875 214.898438 70.367188 214.742188 68.3125 C 214.46875 64.65625 214.335938 60.816406 213.613281 57.207031 C 214.628906 56.980469 215.554688 56.4375 216.117188 55.625 C 217.15625 54.113281 216.953125 51.878906 215.960938 50.410156 C 214.898438 48.832031 212.890625 48.289062 211.332031 49.167969 C 210.453125 49.441406 209.664062 50.027344 209.121094 50.976562 C 208.128906 52.691406 208.441406 55.082031 209.957031 56.414062 C 210.382812 56.800781 210.902344 57.046875 211.445312 57.207031 C 208.847656 60.183594 206.839844 63.503906 204.96875 67.023438 C 203.839844 69.125 202.800781 71.269531 201.785156 73.414062 C 201.535156 73.910156 201.242188 74.453125 200.949219 74.992188 C 199.660156 70.636719 198.195312 66.371094 196.796875 62.035156 C 196.050781 59.734375 195.417969 57.429688 194.832031 55.082031 C 194.449219 53.527344 193.929688 51.878906 192.824219 50.703125 C 192.824219 50.683594 192.84375 50.636719 192.84375 50.613281 C 192.84375 50.589844 192.84375 50.570312 192.84375 50.570312 C 193.90625 50.636719 195.011719 50.320312 195.847656 49.507812 C 198.082031 47.363281 197.109375 43.480469 194.246094 42.488281 C 191.898438 41.675781 188.757812 42.824219 188.421875 45.535156 C 188.195312 47.476562 189.773438 50.5 191.785156 50.570312 C 190.089844 52.351562 189.03125 54.859375 188.058594 57.046875 C 186.953125 59.507812 185.777344 61.878906 184.605469 64.292969 C 183.5 66.597656 182.6875 69.011719 181.398438 71.222656 C 180.972656 71.96875 180.472656 72.757812 180.089844 73.570312 C 179.550781 72.53125 179.144531 71.40625 178.667969 70.367188 C 177.832031 68.492188 176.816406 66.730469 175.847656 64.902344 C 174.175781 61.742188 172.550781 57.835938 169.863281 55.265625 C 170.632812 54.789062 171.285156 54.066406 171.691406 53.164062 C 172.6875 50.929688 172.007812 48.242188 169.773438 47.113281 C 168.78125 46.597656 167.609375 46.527344 166.523438 46.800781 C 166.230469 46.730469 165.9375 46.707031 165.621094 46.777344 C 164.445312 47.003906 163.65625 47.949219 163.117188 48.988281 C 161.894531 51.402344 162.550781 54.292969 165.101562 55.511719 C 165.800781 55.851562 166.570312 56.007812 167.292969 56.007812 C 165.667969 59.597656 164.3125 63.324219 163.523438 67.183594 C 163.070312 69.417969 162.484375 71.609375 161.988281 73.820312 C 161.785156 74.789062 161.46875 75.917969 161.285156 77.046875 C 158.9375 74.453125 157.019531 71.472656 154.445312 69.078125 C 151.21875 66.078125 147.335938 63.59375 142.933594 62.894531 C 142.890625 62.871094 142.820312 62.828125 142.777344 62.804688 C 143.160156 62.238281 143.453125 61.585938 143.613281 60.929688 C 144.265625 58.0625 142.078125 54.8125 138.984375 55.015625 C 138.578125 55.039062 138.195312 55.128906 137.808594 55.285156 C 136.476562 55.648438 135.484375 56.527344 135.035156 57.769531 C 134.378906 58.988281 134.265625 60.386719 135.125 61.472656 C 135.621094 62.871094 136.589844 64.089844 137.992188 64.609375 C 139.433594 65.152344 140.8125 64.746094 141.851562 63.863281 C 142.617188 64.878906 143.722656 65.785156 144.46875 66.777344 C 145.484375 68.175781 146.367188 69.6875 147.132812 71.246094 C 148.757812 74.542969 149.953125 78.0625 151.175781 81.539062 C 152.527344 85.378906 153.972656 89.167969 154.964844 93.121094 C 155.53125 95.355469 156.027344 97.589844 156.480469 99.847656 C 156.886719 101.855469 156.90625 104.496094 158.328125 106.078125 C 158.757812 106.550781 159.367188 106.460938 159.773438 106.121094 C 162.097656 106.394531 164.492188 105.582031 166.726562 104.992188 C 169.121094 104.363281 171.535156 103.730469 173.972656 103.1875 C 179.050781 102.058594 184.199219 101.449219 189.390625 101.382812 C 194.449219 101.316406 199.527344 101.765625 204.425781 103.050781 C 206.773438 103.664062 208.960938 104.542969 211.195312 105.492188 C 212.753906 106.144531 214.605469 107.160156 216.390625 107.410156 C 217.113281 108.175781 218.738281 107.816406 218.894531 106.4375 C 219.460938 101.359375 220.179688 96.597656 221.738281 91.722656 C 223.320312 86.800781 225.394531 82.035156 227.742188 77.429688 C 229.867188 73.253906 232.234375 69.167969 234.808594 65.265625 C 236.503906 62.714844 238.535156 59.035156 241.402344 57.679688 L 241.421875 57.679688 C 243.230469 58.515625 245.734375 57.746094 246.796875 56.054688 C 247.992188 54.089844 247.203125 51.605469 245.488281 50.320312 Z M 210.972656 52.601562 C 211.015625 51.992188 211.195312 51.496094 211.46875 51.109375 C 212.078125 50.683594 212.730469 50.164062 213.5 50.433594 C 214.132812 50.660156 214.582031 51.292969 214.832031 51.878906 C 215.441406 53.367188 214.742188 54.746094 213.070312 54.878906 C 211.582031 54.992188 210.859375 54.046875 210.972656 52.601562 Z M 194.492188 45.242188 C 195.644531 47.070312 193.542969 49.371094 191.648438 48.242188 C 191.152344 47.949219 190.8125 47.542969 190.609375 47.113281 C 190.519531 46.820312 190.453125 46.550781 190.429688 46.28125 C 190.429688 45.671875 190.679688 45.082031 191.152344 44.65625 C 192.167969 43.976562 193.859375 44.25 194.492188 45.242188 Z M 164.742188 51.628906 C 164.71875 51.515625 164.695312 51.425781 164.695312 51.3125 C 165.125 50.5 165.417969 49.621094 166.164062 49.011719 C 167.042969 48.3125 168.328125 48.222656 169.300781 48.785156 C 171.082031 49.847656 170.453125 52.511719 168.757812 53.253906 C 167.246094 53.933594 165.125 53.414062 164.742188 51.628906 Z M 139.34375 62.285156 C 138.125 62.421875 137.269531 60.839844 137.019531 59.871094 C 136.929688 59.53125 136.90625 59.167969 136.90625 58.851562 C 137.019531 58.515625 137.246094 58.175781 137.585938 57.859375 C 138.464844 57.023438 139.773438 56.820312 140.765625 57.65625 C 141.625 58.378906 141.988281 59.960938 141.285156 60.929688 C 140.902344 61.402344 140.023438 62.21875 139.34375 62.285156 Z M 225.464844 75.738281 C 220.496094 84.453125 216.546875 94.226562 216.050781 104.316406 C 215.667969 104.203125 215.304688 104.089844 214.945312 103.957031 C 213.703125 103.480469 212.507812 102.941406 211.289062 102.421875 C 209.1875 101.519531 207.089844 100.726562 204.875 100.140625 C 199.820312 98.808594 194.582031 98.3125 189.367188 98.378906 C 184.199219 98.449219 179.144531 99.101562 174.109375 100.320312 C 171.601562 100.929688 169.097656 101.628906 166.613281 102.351562 C 164.558594 102.941406 162.28125 103.414062 160.359375 104.476562 C 160.519531 102.625 159.730469 100.390625 159.390625 98.742188 C 158.894531 96.394531 158.375 94.046875 157.699219 91.742188 C 156.5 87.65625 154.832031 83.730469 153.273438 79.757812 C 151.941406 76.347656 150.542969 72.9375 148.667969 69.777344 C 147.878906 68.445312 146.976562 67.160156 146.003906 65.964844 C 148.511719 67.65625 150.878906 69.554688 152.957031 71.71875 C 155.890625 74.769531 157.855469 78.652344 161.105469 81.40625 C 161.875 82.058594 162.820312 81.832031 163.386719 81.269531 C 163.566406 81.15625 163.726562 81 163.835938 80.75 C 164.671875 78.832031 164.582031 76.460938 164.988281 74.382812 C 165.417969 72.148438 165.9375 69.9375 166.320312 67.703125 C 166.996094 63.773438 168.015625 59.871094 168.421875 55.917969 C 168.464844 55.917969 168.488281 55.894531 168.53125 55.894531 C 169.457031 57.566406 170.472656 59.167969 171.308594 60.90625 C 172.304688 62.984375 173.207031 65.105469 174.152344 67.207031 C 175.734375 70.660156 176.75 74.878906 179.277344 77.792969 C 179.300781 77.839844 179.347656 77.859375 179.367188 77.90625 C 179.863281 78.832031 181.671875 78.71875 181.851562 77.542969 C 182.210938 75.21875 183.429688 73.550781 184.492188 71.496094 C 185.621094 69.304688 186.480469 66.933594 187.496094 64.699219 C 188.488281 62.511719 189.324219 60.277344 190.160156 58.019531 C 190.902344 56.007812 191.785156 54 192.4375 51.96875 C 192.914062 53.457031 193.09375 54.992188 193.339844 56.550781 C 193.726562 58.945312 194.335938 61.292969 194.988281 63.640625 C 196.390625 68.71875 198.082031 73.773438 199.121094 78.921875 C 199.210938 79.328125 199.414062 79.597656 199.683594 79.757812 C 199.957031 80.296875 200.746094 80.457031 201.242188 80.1875 C 202.957031 79.261719 203.679688 76.4375 204.515625 74.769531 C 205.507812 72.714844 206.5 70.660156 207.519531 68.605469 C 209.074219 65.421875 210.65625 62.238281 212.191406 59.054688 C 211.964844 62.171875 212.394531 65.398438 212.507812 68.46875 C 212.574219 70.433594 212.777344 72.375 212.957031 74.316406 C 213.117188 76.101562 212.800781 78.3125 213.542969 79.9375 C 213.613281 80.074219 213.703125 80.164062 213.816406 80.230469 C 214.0625 80.90625 215.011719 81.269531 215.578125 80.660156 C 217.316406 78.761719 218.421875 76.414062 220.25 74.542969 C 222.234375 72.511719 224.449219 70.726562 226.613281 68.875 C 228.941406 66.890625 231.128906 64.859375 233.613281 63.050781 C 233.816406 62.894531 234.042969 62.734375 234.246094 62.578125 C 233.996094 62.917969 233.75 63.234375 233.5 63.546875 C 230.519531 67.320312 227.878906 71.496094 225.464844 75.738281 Z M 245.53125 54.25 C 245.214844 55.039062 243.972656 55.421875 243.230469 55.511719 C 241.785156 55.714844 241.015625 54.675781 241.039062 53.300781 C 241.039062 52.9375 241.105469 52.625 241.199219 52.328125 C 241.648438 51.832031 242.125 51.359375 242.824219 51.246094 C 243.636719 51.132812 244.425781 51.5625 244.945312 52.171875 C 245.375 52.714844 245.800781 53.570312 245.53125 54.25 Z M 245.53125 54.25 " fill-opacity="1" fill-rule="nonzero"/></g><g fill="#ffde59" fill-opacity="1"><g transform="translate(55.428634, 231.840841)"><g><path d="M 42.921875 -21.609375 C 43.515625 -21.609375 43.8125 -21.132812 43.8125 -20.1875 C 43.8125 -19.238281 43.601562 -17.597656 43.1875 -15.265625 C 42.863281 -13.710938 41.082031 -11.488281 37.84375 -8.59375 C 33.945312 -5.132812 29.660156 -2.664062 24.984375 -1.1875 C 22.171875 -0.300781 19.421875 0.140625 16.734375 0.140625 C 14.054688 0.140625 11.609375 -0.988281 9.390625 -3.25 C 7.179688 -5.507812 6.078125 -8.1875 6.078125 -11.28125 C 6.078125 -14.382812 6.703125 -17.597656 7.953125 -20.921875 C 9.203125 -24.242188 10.878906 -27.421875 12.984375 -30.453125 C 15.097656 -33.484375 17.59375 -36.394531 20.46875 -39.1875 C 23.351562 -41.976562 26.351562 -44.398438 29.46875 -46.453125 C 32.582031 -48.503906 35.84375 -50.132812 39.25 -51.34375 C 42.664062 -52.550781 45.90625 -53.15625 48.96875 -53.15625 C 51.394531 -53.15625 53.457031 -52.28125 55.15625 -50.53125 C 56.050781 -49.59375 56.5 -48.410156 56.5 -46.984375 C 56.5 -45.566406 55.804688 -43.773438 54.421875 -41.609375 C 53.035156 -39.453125 51.394531 -37.484375 49.5 -35.703125 C 47.613281 -33.921875 45.660156 -32.410156 43.640625 -31.171875 C 41.628906 -29.941406 40.019531 -29.328125 38.8125 -29.328125 C 37.601562 -29.328125 36.566406 -29.703125 35.703125 -30.453125 C 34.835938 -31.203125 34.40625 -31.875 34.40625 -32.46875 C 34.40625 -33.0625 34.535156 -33.71875 34.796875 -34.4375 C 35.054688 -35.15625 35.382812 -35.515625 35.78125 -35.515625 C 35.675781 -35.390625 35.625 -35.265625 35.625 -35.140625 C 35.625 -34.847656 36.050781 -34.703125 36.90625 -34.703125 C 37.757812 -34.703125 39.1875 -35.453125 41.1875 -36.953125 C 43.1875 -38.460938 44.992188 -40.15625 46.609375 -42.03125 C 48.234375 -43.914062 49.046875 -45.328125 49.046875 -46.265625 C 49.046875 -46.910156 48.613281 -47.234375 47.75 -47.234375 C 45.425781 -47.234375 42.21875 -46.148438 38.125 -43.984375 C 34.039062 -41.816406 30.128906 -39.03125 26.390625 -35.625 C 22.660156 -32.21875 19.414062 -28.171875 16.65625 -23.484375 C 13.90625 -18.796875 12.53125 -14.585938 12.53125 -10.859375 C 12.53125 -9.304688 12.941406 -8.054688 13.765625 -7.109375 C 14.597656 -6.171875 15.875 -5.703125 17.59375 -5.703125 C 19.3125 -5.703125 21.34375 -6.195312 23.6875 -7.1875 C 26.03125 -8.175781 28.257812 -9.382812 30.375 -10.8125 C 32.488281 -12.25 34.484375 -13.722656 36.359375 -15.234375 C 38.242188 -16.742188 39.75 -18.066406 40.875 -19.203125 C 42 -20.335938 42.570312 -21.019531 42.59375 -21.25 C 42.613281 -21.488281 42.722656 -21.609375 42.921875 -21.609375 Z M 42.921875 -21.609375 "/></g></g></g><g fill="#ff9600" fill-opacity="1"><g transform="translate(56.648826, 231.840841)"><g><path d="M 42.921875 -21.609375 C 43.515625 -21.609375 43.8125 -21.132812 43.8125 -20.1875 C 43.8125 -19.238281 43.601562 -17.597656 43.1875 -15.265625 C 42.863281 -13.710938 41.082031 -11.488281 37.84375 -8.59375 C 33.945312 -5.132812 29.660156 -2.664062 24.984375 -1.1875 C 22.171875 -0.300781 19.421875 0.140625 16.734375 0.140625 C 14.054688 0.140625 11.609375 -0.988281 9.390625 -3.25 C 7.179688 -5.507812 6.078125 -8.1875 6.078125 -11.28125 C 6.078125 -14.382812 6.703125 -17.597656 7.953125 -20.921875 C 9.203125 -24.242188 10.878906 -27.421875 12.984375 -30.453125 C 15.097656 -33.484375 17.59375 -36.394531 20.46875 -39.1875 C 23.351562 -41.976562 26.351562 -44.398438 29.46875 -46.453125 C 32.582031 -48.503906 35.84375 -50.132812 39.25 -51.34375 C 42.664062 -52.550781 45.90625 -53.15625 48.96875 -53.15625 C 51.394531 -53.15625 53.457031 -52.28125 55.15625 -50.53125 C 56.050781 -49.59375 56.5 -48.410156 56.5 -46.984375 C 56.5 -45.566406 55.804688 -43.773438 54.421875 -41.609375 C 53.035156 -39.453125 51.394531 -37.484375 49.5 -35.703125 C 47.613281 -33.921875 45.660156 -32.410156 43.640625 -31.171875 C 41.628906 -29.941406 40.019531 -29.328125 38.8125 -29.328125 C 37.601562 -29.328125 36.566406 -29.703125 35.703125 -30.453125 C 34.835938 -31.203125 34.40625 -31.875 34.40625 -32.46875 C 34.40625 -33.0625 34.535156 -33.71875 34.796875 -34.4375 C 35.054688 -35.15625 35.382812 -35.515625 35.78125 -35.515625 C 35.675781 -35.390625 35.625 -35.265625 35.625 -35.140625 C 35.625 -34.847656 36.050781 -34.703125 36.90625 -34.703125 C 37.757812 -34.703125 39.1875 -35.453125 41.1875 -36.953125 C 43.1875 -38.460938 44.992188 -40.15625 46.609375 -42.03125 C 48.234375 -43.914062 49.046875 -45.328125 49.046875 -46.265625 C 49.046875 -46.910156 48.613281 -47.234375 47.75 -47.234375 C 45.425781 -47.234375 42.21875 -46.148438 38.125 -43.984375 C 34.039062 -41.816406 30.128906 -39.03125 26.390625 -35.625 C 22.660156 -32.21875 19.414062 -28.171875 16.65625 -23.484375 C 13.90625 -18.796875 12.53125 -14.585938 12.53125 -10.859375 C 12.53125 -9.304688 12.941406 -8.054688 13.765625 -7.109375 C 14.597656 -6.171875 15.875 -5.703125 17.59375 -5.703125 C 19.3125 -5.703125 21.34375 -6.195312 23.6875 -7.1875 C 26.03125 -8.175781 28.257812 -9.382812 30.375 -10.8125 C 32.488281 -12.25 34.484375 -13.722656 36.359375 -15.234375 C 38.242188 -16.742188 39.75 -18.066406 40.875 -19.203125 C 42 -20.335938 42.570312 -21.019531 42.59375 -21.25 C 42.613281 -21.488281 42.722656 -21.609375 42.921875 -21.609375 Z M 42.921875 -21.609375 "/></g></g></g><g fill="#ffde59" fill-opacity="1"><g transform="translate(166.798748, 305.164703)"><g><path d="M 48.859375 -55.5625 C 49.328125 -55.5625 49.695312 -55.414062 49.96875 -55.125 C 50.238281 -54.832031 50.375 -54.53125 50.375 -54.21875 C 50.375 -53.90625 50.132812 -53.332031 49.65625 -52.5 C 49.175781 -51.675781 48.070312 -49.875 46.34375 -47.09375 C 44.613281 -44.3125 43.265625 -42.132812 42.296875 -40.5625 C 36.691406 -31.4375 32.289062 -23.722656 29.09375 -17.421875 C 25.90625 -11.117188 24.3125 -7.3125 24.3125 -6 L 24.3125 -5.703125 C 24.3125 -4.691406 24.679688 -4.1875 25.421875 -4.1875 C 26.171875 -4.1875 27.066406 -4.53125 28.109375 -5.21875 C 29.160156 -5.914062 30.082031 -6.660156 30.875 -7.453125 C 31.664062 -8.242188 32.460938 -9.066406 33.265625 -9.921875 C 34.066406 -10.773438 34.554688 -11.273438 34.734375 -11.421875 C 34.910156 -11.566406 35.132812 -11.640625 35.40625 -11.640625 C 35.820312 -11.640625 36.09375 -11.375 36.21875 -10.84375 C 36.34375 -10.3125 36.40625 -9.566406 36.40625 -8.609375 C 36.40625 -7.660156 36.332031 -7.039062 36.1875 -6.75 C 35.46875 -5.363281 33.890625 -3.675781 31.453125 -1.6875 C 29.015625 0.300781 26.710938 1.296875 24.546875 1.296875 C 20.835938 1.296875 18.984375 -0.269531 18.984375 -3.40625 C 18.984375 -5.363281 19.722656 -7.921875 21.203125 -11.078125 C 19.203125 -8.484375 17.164062 -6.273438 15.09375 -4.453125 C 11.238281 -1.085938 7.890625 0.59375 5.046875 0.59375 C 3.460938 0.59375 2.289062 0.0351562 1.53125 -1.078125 C 0.78125 -2.191406 0.40625 -3.789062 0.40625 -5.875 C 0.40625 -7.96875 1.21875 -10.46875 2.84375 -13.375 C 4.476562 -16.289062 6.515625 -18.914062 8.953125 -21.25 C 11.390625 -23.59375 14.085938 -25.546875 17.046875 -27.109375 C 20.015625 -28.679688 22.75 -29.46875 25.25 -29.46875 C 26.039062 -29.46875 26.96875 -28.988281 28.03125 -28.03125 C 28.738281 -29.164062 30.0625 -31.4375 32 -34.84375 C 38.050781 -45.050781 42.050781 -51.28125 44 -53.53125 C 45.039062 -54.882812 46.660156 -55.5625 48.859375 -55.5625 Z M 25.765625 -24.546875 C 22.203125 -23.753906 18.890625 -22.097656 15.828125 -19.578125 C 12.765625 -17.054688 10.46875 -14.414062 8.9375 -11.65625 C 7.40625 -8.90625 6.640625 -7.117188 6.640625 -6.296875 C 6.640625 -5.484375 6.8125 -5.078125 7.15625 -5.078125 C 8.632812 -5.078125 12.304688 -8.390625 18.171875 -15.015625 C 21.085938 -18.273438 23.617188 -21.453125 25.765625 -24.546875 Z M 25.765625 -24.546875 "/></g></g></g><g fill="#ff9600" fill-opacity="1"><g transform="translate(168.018949, 305.164703)"><g><path d="M 48.859375 -55.5625 C 49.328125 -55.5625 49.695312 -55.414062 49.96875 -55.125 C 50.238281 -54.832031 50.375 -54.53125 50.375 -54.21875 C 50.375 -53.90625 50.132812 -53.332031 49.65625 -52.5 C 49.175781 -51.675781 48.070312 -49.875 46.34375 -47.09375 C 44.613281 -44.3125 43.265625 -42.132812 42.296875 -40.5625 C 36.691406 -31.4375 32.289062 -23.722656 29.09375 -17.421875 C 25.90625 -11.117188 24.3125 -7.3125 24.3125 -6 L 24.3125 -5.703125 C 24.3125 -4.691406 24.679688 -4.1875 25.421875 -4.1875 C 26.171875 -4.1875 27.066406 -4.53125 28.109375 -5.21875 C 29.160156 -5.914062 30.082031 -6.660156 30.875 -7.453125 C 31.664062 -8.242188 32.460938 -9.066406 33.265625 -9.921875 C 34.066406 -10.773438 34.554688 -11.273438 34.734375 -11.421875 C 34.910156 -11.566406 35.132812 -11.640625 35.40625 -11.640625 C 35.820312 -11.640625 36.09375 -11.375 36.21875 -10.84375 C 36.34375 -10.3125 36.40625 -9.566406 36.40625 -8.609375 C 36.40625 -7.660156 36.332031 -7.039062 36.1875 -6.75 C 35.46875 -5.363281 33.890625 -3.675781 31.453125 -1.6875 C 29.015625 0.300781 26.710938 1.296875 24.546875 1.296875 C 20.835938 1.296875 18.984375 -0.269531 18.984375 -3.40625 C 18.984375 -5.363281 19.722656 -7.921875 21.203125 -11.078125 C 19.203125 -8.484375 17.164062 -6.273438 15.09375 -4.453125 C 11.238281 -1.085938 7.890625 0.59375 5.046875 0.59375 C 3.460938 0.59375 2.289062 0.0351562 1.53125 -1.078125 C 0.78125 -2.191406 0.40625 -3.789062 0.40625 -5.875 C 0.40625 -7.96875 1.21875 -10.46875 2.84375 -13.375 C 4.476562 -16.289062 6.515625 -18.914062 8.953125 -21.25 C 11.390625 -23.59375 14.085938 -25.546875 17.046875 -27.109375 C 20.015625 -28.679688 22.75 -29.46875 25.25 -29.46875 C 26.039062 -29.46875 26.96875 -28.988281 28.03125 -28.03125 C 28.738281 -29.164062 30.0625 -31.4375 32 -34.84375 C 38.050781 -45.050781 42.050781 -51.28125 44 -53.53125 C 45.039062 -54.882812 46.660156 -55.5625 48.859375 -55.5625 Z M 25.765625 -24.546875 C 22.203125 -23.753906 18.890625 -22.097656 15.828125 -19.578125 C 12.765625 -17.054688 10.46875 -14.414062 8.9375 -11.65625 C 7.40625 -8.90625 6.640625 -7.117188 6.640625 -6.296875 C 6.640625 -5.484375 6.8125 -5.078125 7.15625 -5.078125 C 8.632812 -5.078125 12.304688 -8.390625 18.171875 -15.015625 C 21.085938 -18.273438 23.617188 -21.453125 25.765625 -24.546875 Z M 25.765625 -24.546875 "/></g></g></g><g fill="#ffde59" fill-opacity="1"><g transform="translate(265.758767, 231.909762)"><g><path d="M 10.125 -10.1875 L 9.640625 -9.1875 C 9.640625 -8.476562 10.644531 -7.796875 12.65625 -7.140625 C 14.675781 -6.484375 16.890625 -6.15625 19.296875 -6.15625 C 21.703125 -6.15625 24.347656 -6.507812 27.234375 -7.21875 C 30.128906 -7.9375 32.644531 -8.816406 34.78125 -9.859375 C 36.925781 -10.898438 38.695312 -11.988281 40.09375 -13.125 C 41.488281 -14.257812 42.1875 -15.25 42.1875 -16.09375 C 42.1875 -17.15625 40.945312 -18.140625 38.46875 -19.046875 C 36 -19.960938 32.410156 -20.96875 27.703125 -22.0625 C 23.003906 -23.164062 19.5625 -24.554688 17.375 -26.234375 C 15.1875 -27.921875 14.09375 -29.96875 14.09375 -32.375 C 14.09375 -34.789062 14.957031 -37.097656 16.6875 -39.296875 C 18.414062 -41.492188 20.671875 -43.441406 23.453125 -45.140625 C 26.234375 -46.847656 29.265625 -48.375 32.546875 -49.71875 C 39.347656 -52.457031 45.648438 -53.828125 51.453125 -53.828125 C 53.679688 -53.828125 55.644531 -53.628906 57.34375 -53.234375 C 60.613281 -52.460938 62.25 -51.445312 62.25 -50.1875 C 62.25 -48.925781 62.132812 -48.066406 61.90625 -47.609375 C 61.6875 -47.160156 61.507812 -46.859375 61.375 -46.703125 C 61.238281 -46.554688 61.0625 -46.410156 60.84375 -46.265625 C 60.632812 -46.117188 60.484375 -46.007812 60.390625 -45.9375 C 59.304688 -45.019531 56.328125 -44.445312 51.453125 -44.21875 C 49.773438 -44.144531 48.859375 -44.054688 48.703125 -43.953125 C 48.554688 -43.859375 48.425781 -43.8125 48.3125 -43.8125 C 48.207031 -43.8125 48.078125 -43.910156 47.921875 -44.109375 C 47.773438 -44.304688 47.703125 -44.628906 47.703125 -45.078125 C 47.703125 -45.523438 48.1875 -46.34375 49.15625 -47.53125 C 46.144531 -47.351562 42.925781 -46.660156 39.5 -45.453125 C 36.070312 -44.242188 33.097656 -42.878906 30.578125 -41.359375 C 28.054688 -39.835938 25.957031 -38.335938 24.28125 -36.859375 C 22.601562 -35.390625 21.765625 -34.351562 21.765625 -33.75 C 21.765625 -33.144531 21.945312 -32.644531 22.3125 -32.25 C 23.351562 -31.132812 26.234375 -29.972656 30.953125 -28.765625 C 35.847656 -27.503906 39.109375 -26.488281 40.734375 -25.71875 C 42.367188 -24.957031 43.722656 -24.226562 44.796875 -23.53125 C 45.867188 -22.84375 46.726562 -22.140625 47.375 -21.421875 C 48.882812 -19.691406 49.640625 -17.9375 49.640625 -16.15625 C 49.640625 -14.382812 49.160156 -12.71875 48.203125 -11.15625 C 47.253906 -9.601562 45.820312 -8.097656 43.90625 -6.640625 C 41.988281 -5.179688 39.734375 -3.882812 37.140625 -2.75 C 31.460938 -0.195312 24.691406 1.078125 16.828125 1.078125 C 11.097656 1.078125 7.441406 -0.441406 5.859375 -3.484375 C 5.441406 -4.253906 5.234375 -5.050781 5.234375 -5.875 C 5.234375 -6.707031 5.421875 -7.457031 5.796875 -8.125 C 6.179688 -8.789062 6.644531 -9.296875 7.1875 -9.640625 C 8.25 -10.304688 9.003906 -10.640625 9.453125 -10.640625 C 9.898438 -10.640625 10.125 -10.488281 10.125 -10.1875 Z M 10.125 -10.1875 "/></g></g></g><g fill="#ff9600" fill-opacity="1"><g transform="translate(267.589031, 231.840841)"><g><path d="M 10.125 -10.1875 L 9.640625 -9.1875 C 9.640625 -8.476562 10.644531 -7.796875 12.65625 -7.140625 C 14.675781 -6.484375 16.890625 -6.15625 19.296875 -6.15625 C 21.703125 -6.15625 24.347656 -6.507812 27.234375 -7.21875 C 30.128906 -7.9375 32.644531 -8.816406 34.78125 -9.859375 C 36.925781 -10.898438 38.695312 -11.988281 40.09375 -13.125 C 41.488281 -14.257812 42.1875 -15.25 42.1875 -16.09375 C 42.1875 -17.15625 40.945312 -18.140625 38.46875 -19.046875 C 36 -19.960938 32.410156 -20.96875 27.703125 -22.0625 C 23.003906 -23.164062 19.5625 -24.554688 17.375 -26.234375 C 15.1875 -27.921875 14.09375 -29.96875 14.09375 -32.375 C 14.09375 -34.789062 14.957031 -37.097656 16.6875 -39.296875 C 18.414062 -41.492188 20.671875 -43.441406 23.453125 -45.140625 C 26.234375 -46.847656 29.265625 -48.375 32.546875 -49.71875 C 39.347656 -52.457031 45.648438 -53.828125 51.453125 -53.828125 C 53.679688 -53.828125 55.644531 -53.628906 57.34375 -53.234375 C 60.613281 -52.460938 62.25 -51.445312 62.25 -50.1875 C 62.25 -48.925781 62.132812 -48.066406 61.90625 -47.609375 C 61.6875 -47.160156 61.507812 -46.859375 61.375 -46.703125 C 61.238281 -46.554688 61.0625 -46.410156 60.84375 -46.265625 C 60.632812 -46.117188 60.484375 -46.007812 60.390625 -45.9375 C 59.304688 -45.019531 56.328125 -44.445312 51.453125 -44.21875 C 49.773438 -44.144531 48.859375 -44.054688 48.703125 -43.953125 C 48.554688 -43.859375 48.425781 -43.8125 48.3125 -43.8125 C 48.207031 -43.8125 48.078125 -43.910156 47.921875 -44.109375 C 47.773438 -44.304688 47.703125 -44.628906 47.703125 -45.078125 C 47.703125 -45.523438 48.1875 -46.34375 49.15625 -47.53125 C 46.144531 -47.351562 42.925781 -46.660156 39.5 -45.453125 C 36.070312 -44.242188 33.097656 -42.878906 30.578125 -41.359375 C 28.054688 -39.835938 25.957031 -38.335938 24.28125 -36.859375 C 22.601562 -35.390625 21.765625 -34.351562 21.765625 -33.75 C 21.765625 -33.144531 21.945312 -32.644531 22.3125 -32.25 C 23.351562 -31.132812 26.234375 -29.972656 30.953125 -28.765625 C 35.847656 -27.503906 39.109375 -26.488281 40.734375 -25.71875 C 42.367188 -24.957031 43.722656 -24.226562 44.796875 -23.53125 C 45.867188 -22.84375 46.726562 -22.140625 47.375 -21.421875 C 48.882812 -19.691406 49.640625 -17.9375 49.640625 -16.15625 C 49.640625 -14.382812 49.160156 -12.71875 48.203125 -11.15625 C 47.253906 -9.601562 45.820312 -8.097656 43.90625 -6.640625 C 41.988281 -5.179688 39.734375 -3.882812 37.140625 -2.75 C 31.460938 -0.195312 24.691406 1.078125 16.828125 1.078125 C 11.097656 1.078125 7.441406 -0.441406 5.859375 -3.484375 C 5.441406 -4.253906 5.234375 -5.050781 5.234375 -5.875 C 5.234375 -6.707031 5.421875 -7.457031 5.796875 -8.125 C 6.179688 -8.789062 6.644531 -9.296875 7.1875 -9.640625 C 8.25 -10.304688 9.003906 -10.640625 9.453125 -10.640625 C 9.898438 -10.640625 10.125 -10.488281 10.125 -10.1875 Z M 10.125 -10.1875 "/></g></g></g></svg>