<svg xmlns="http://www.w3.org/2000/svg" xmlns:xlink="http://www.w3.org/1999/xlink" width="500" zoomAndPan="magnify" viewBox="0 0 375 374.999991" height="500" preserveAspectRatio="xMidYMid meet" version="1.2"><defs><clipPath id="9d2a70611a"><path d="M 1.453125 1.453125 L 373.546875 1.453125 L 373.546875 373.546875 L 1.453125 373.546875 Z M 1.453125 1.453125 "/></clipPath><clipPath id="3338612685"><path d="M 187.5 1.453125 C 84.75 1.453125 1.453125 84.75 1.453125 187.5 C 1.453125 290.25 84.75 373.546875 187.5 373.546875 C 290.25 373.546875 373.546875 290.25 373.546875 187.5 C 373.546875 84.75 290.25 1.453125 187.5 1.453125 Z M 187.5 1.453125 "/></clipPath><clipPath id="0489bc6254"><path d="M 1.453125 1.453125 L 373.316406 1.453125 L 373.316406 373.316406 L 1.453125 373.316406 Z M 1.453125 1.453125 "/></clipPath><clipPath id="1dc52defc5"><path d="M 187.382812 1.453125 C 84.695312 1.453125 1.453125 84.695312 1.453125 187.382812 C 1.453125 290.070312 84.695312 373.316406 187.382812 373.316406 C 290.070312 373.316406 373.316406 290.070312 373.316406 187.382812 C 373.316406 84.695312 290.070312 1.453125 187.382812 1.453125 Z M 187.382812 1.453125 "/></clipPath><clipPath id="ac985accae"><path d="M 7.835938 7.835938 L 367.371094 7.835938 L 367.371094 367.371094 L 7.835938 367.371094 Z M 7.835938 7.835938 "/></clipPath><clipPath id="34d5adf9b1"><path d="M 187.5 7.835938 C 88.273438 7.835938 7.835938 88.273438 7.835938 187.5 C 7.835938 286.726562 88.273438 367.164062 187.5 367.164062 C 286.726562 367.164062 367.164062 286.726562 367.164062 187.5 C 367.164062 88.273438 286.726562 7.835938 187.5 7.835938 Z M 187.5 7.835938 "/></clipPath><clipPath id="dac144ac27"><path d="M 75 84.453125 L 304 84.453125 L 304 284.765625 L 75 284.765625 Z M 75 84.453125 "/></clipPath><clipPath id="199106625c"><path d="M 132.429688 45 L 246 45 L 246 111.386719 L 132.429688 111.386719 Z M 132.429688 45 "/></clipPath></defs><g id="4a78e66f48"><g clip-rule="nonzero" clip-path="url(#9d2a70611a)"><g clip-rule="nonzero" clip-path="url(#3338612685)"><path style=" stroke:none;fill-rule:nonzero;fill:#af2119;fill-opacity:1;" d="M 1.453125 1.453125 L 373.546875 1.453125 L 373.546875 373.546875 L 1.453125 373.546875 Z M 1.453125 1.453125 "/></g></g><g clip-rule="nonzero" clip-path="url(#0489bc6254)"><g clip-rule="nonzero" clip-path="url(#1dc52defc5)"><path style="fill:none;stroke-width:4.380638;stroke-linecap:butt;stroke-linejoin:miter;stroke:#e8dc08;stroke-opacity:1;stroke-miterlimit:4;" d="M 181.10912 0.00183782 C 81.084994 0.00183782 0.00183344 81.084998 0.00183344 181.109124 C 0.00183344 281.13325 81.084994 362.220216 181.10912 362.220216 C 281.133246 362.220216 362.220211 281.13325 362.220211 181.109124 C 362.220211 81.084998 281.133246 0.00183782 181.10912 0.00183782 Z M 181.10912 0.00183782 " transform="matrix(1.026627,0,0,1.026627,1.451243,1.451238)"/></g></g><g clip-rule="nonzero" clip-path="url(#ac985accae)"><g clip-rule="nonzero" clip-path="url(#34d5adf9b1)"><path style="fill:none;stroke-width:4.380638;stroke-linecap:butt;stroke-linejoin:miter;stroke:#e8dc08;stroke-opacity:1;stroke-miterlimit:4;" d="M 174.898656 0.000162078 C 78.304064 0.000162078 0.000157698 78.304069 0.000157698 174.898661 C 0.000157698 271.493253 78.304064 349.79716 174.898656 349.79716 C 271.493248 349.79716 349.797155 271.493253 349.797155 174.898661 C 349.797155 78.304069 271.493248 0.000162078 174.898656 0.000162078 Z M 174.898656 0.000162078 " transform="matrix(1.027248,0,0,1.027248,7.835776,7.835771)"/></g></g><path style=" stroke:none;fill-rule:nonzero;fill:#e8dc08;fill-opacity:1;" d="M 272.800781 114.546875 C 272.949219 114.546875 273.085938 114.605469 273.191406 114.707031 L 273.523438 115.039062 C 273.734375 115.25 273.734375 115.609375 273.523438 115.820312 L 252.183594 137.15625 C 251.980469 137.363281 251.613281 137.363281 251.40625 137.15625 L 251.074219 136.824219 C 250.863281 136.613281 250.863281 136.257812 251.074219 136.046875 L 272.410156 114.707031 C 272.511719 114.605469 272.652344 114.546875 272.800781 114.546875 Z M 249.742188 138.15625 L 250.074219 138.488281 C 250.535156 138.945312 251.144531 139.199219 251.796875 139.199219 C 252.445312 139.199219 253.058594 138.945312 253.515625 138.488281 L 274.855469 117.152344 C 275.800781 116.203125 275.800781 114.65625 274.851562 113.710938 L 274.523438 113.378906 C 274.0625 112.917969 273.449219 112.667969 272.800781 112.667969 C 272.148438 112.667969 271.539062 112.917969 271.078125 113.378906 L 249.742188 134.714844 C 248.796875 135.664062 248.796875 137.207031 249.742188 138.15625 "/><path style=" stroke:none;fill-rule:nonzero;fill:#e8dc08;fill-opacity:1;" d="M 260.914062 102.878906 L 261.25 103.203125 C 261.464844 103.40625 261.472656 103.761719 261.269531 103.976562 L 240.601562 125.96875 C 240.457031 126.121094 240.285156 126.144531 240.195312 126.144531 C 240.054688 126.144531 239.917969 126.089844 239.816406 125.988281 L 239.480469 125.664062 C 239.265625 125.457031 239.257812 125.105469 239.460938 124.890625 L 260.132812 102.898438 C 260.273438 102.746094 260.441406 102.722656 260.53125 102.722656 C 260.675781 102.722656 260.8125 102.777344 260.914062 102.878906 Z M 238.507812 127.34375 C 238.964844 127.785156 239.5625 128.027344 240.195312 128.027344 C 240.867188 128.027344 241.511719 127.746094 241.972656 127.257812 L 262.640625 105.265625 C 263.550781 104.300781 263.511719 102.769531 262.558594 101.847656 L 262.222656 101.523438 C 261.765625 101.082031 261.164062 100.839844 260.53125 100.839844 C 259.863281 100.839844 259.214844 101.117188 258.757812 101.605469 L 238.085938 123.597656 C 237.179688 124.5625 237.21875 126.097656 238.167969 127.015625 L 238.507812 127.34375 "/><path style=" stroke:none;fill-rule:nonzero;fill:#e8dc08;fill-opacity:1;" d="M 284.628906 126.816406 C 284.71875 126.816406 284.890625 126.835938 285.027344 126.980469 L 285.351562 127.316406 C 285.457031 127.421875 285.511719 127.5625 285.507812 127.710938 C 285.503906 127.859375 285.441406 127.996094 285.332031 128.101562 L 263.339844 148.769531 C 263.242188 148.867188 263.109375 148.917969 262.964844 148.917969 C 262.875 148.917969 262.707031 148.894531 262.566406 148.75 L 262.242188 148.417969 C 262.140625 148.308594 262.082031 148.167969 262.085938 148.019531 C 262.09375 147.871094 262.152344 147.734375 262.261719 147.632812 L 284.253906 126.960938 C 284.351562 126.867188 284.488281 126.816406 284.628906 126.816406 Z M 260.207031 147.972656 C 260.191406 148.628906 260.433594 149.25 260.886719 149.722656 L 261.214844 150.0625 C 261.667969 150.53125 262.304688 150.800781 262.964844 150.800781 C 263.589844 150.800781 264.179688 150.566406 264.628906 150.140625 L 286.621094 129.472656 C 287.101562 129.023438 287.371094 128.414062 287.386719 127.757812 C 287.40625 127.101562 287.160156 126.480469 286.707031 126.007812 L 286.382812 125.671875 C 285.925781 125.199219 285.289062 124.933594 284.628906 124.933594 C 284.003906 124.933594 283.414062 125.164062 282.964844 125.589844 L 260.972656 146.257812 C 260.496094 146.710938 260.222656 147.316406 260.207031 147.972656 "/><g clip-rule="nonzero" clip-path="url(#dac144ac27)"><path style=" stroke:none;fill-rule:nonzero;fill:#e8dc08;fill-opacity:1;" d="M 182.027344 210.902344 L 179.046875 218.144531 L 116.296875 280.894531 C 115.105469 282.085938 113.515625 282.742188 111.816406 282.742188 C 110.117188 282.742188 108.527344 282.085938 107.335938 280.894531 C 104.867188 278.425781 104.867188 274.40625 107.335938 271.933594 L 111.570312 267.699219 L 115.476562 271.609375 C 115.660156 271.792969 115.898438 271.882812 116.140625 271.882812 C 116.382812 271.882812 116.621094 271.792969 116.804688 271.609375 C 117.175781 271.238281 117.175781 270.644531 116.804688 270.277344 L 112.898438 266.371094 L 169.554688 209.714844 L 172.691406 212.851562 C 172.875 213.035156 173.113281 213.125 173.355469 213.125 C 173.597656 213.125 173.835938 213.035156 174.019531 212.851562 C 174.390625 212.480469 174.390625 211.886719 174.019531 211.519531 L 171.21875 208.714844 L 177.324219 206.203125 C 177.441406 206.152344 177.546875 206.085938 177.632812 205.996094 L 183.9375 199.691406 L 188.535156 204.292969 L 182.234375 210.597656 C 182.144531 210.683594 182.074219 210.789062 182.027344 210.902344 Z M 220.453125 163.179688 C 220.546875 163.082031 220.636719 162.980469 220.734375 162.882812 L 223.039062 165.191406 C 223.222656 165.375 223.464844 165.46875 223.707031 165.46875 C 223.945312 165.46875 224.1875 165.375 224.371094 165.191406 C 224.738281 164.820312 224.738281 164.226562 224.371094 163.859375 L 221.984375 161.472656 C 225.515625 157.101562 227.195312 151.53125 226.621094 145.867188 L 226.261719 142.320312 C 225.46875 134.476562 227.636719 126.421875 232.375 119.640625 L 252.089844 91.410156 C 254.277344 88.285156 257.902344 86.339844 261.558594 86.339844 C 262.449219 86.339844 263.335938 86.457031 264.183594 86.683594 C 282.667969 91.59375 296.636719 105.5625 301.550781 124.046875 C 302.730469 128.480469 300.828125 133.339844 296.820312 136.136719 L 268.589844 155.855469 C 262.796875 159.902344 255.871094 162.128906 249.082031 162.128906 C 248.023438 162.128906 246.957031 162.074219 245.910156 161.96875 L 242.363281 161.613281 C 241.644531 161.539062 240.921875 161.5 240.203125 161.5 C 234.480469 161.5 229.097656 163.730469 225.050781 167.78125 L 195.796875 197.03125 L 191.199219 192.433594 Z M 78.183594 124.046875 C 83.097656 105.5625 97.066406 91.59375 115.550781 86.683594 C 116.402344 86.457031 117.285156 86.339844 118.175781 86.339844 C 121.832031 86.339844 125.460938 88.285156 127.640625 91.410156 L 147.363281 119.640625 C 152.097656 126.421875 154.269531 134.476562 153.472656 142.320312 L 153.117188 145.867188 C 152.542969 151.53125 154.21875 157.101562 157.75 161.472656 L 155.363281 163.859375 C 154.996094 164.226562 154.996094 164.820312 155.363281 165.191406 C 155.546875 165.375 155.789062 165.46875 156.027344 165.46875 C 156.269531 165.46875 156.511719 165.375 156.695312 165.191406 L 159.003906 162.882812 C 159.097656 162.980469 159.1875 163.082031 159.285156 163.179688 L 202.101562 205.996094 C 202.191406 206.085938 202.292969 206.152344 202.40625 206.203125 L 208.515625 208.714844 L 205.714844 211.519531 C 205.347656 211.886719 205.347656 212.480469 205.714844 212.851562 C 205.898438 213.035156 206.136719 213.125 206.378906 213.125 C 206.621094 213.125 206.863281 213.035156 207.042969 212.851562 L 210.179688 209.714844 L 266.835938 266.371094 L 262.929688 270.277344 C 262.5625 270.644531 262.5625 271.238281 262.929688 271.609375 C 263.113281 271.792969 263.351562 271.882812 263.59375 271.882812 C 263.835938 271.882812 264.078125 271.792969 264.257812 271.609375 L 268.167969 267.699219 L 272.398438 271.933594 C 274.871094 274.40625 274.871094 278.425781 272.398438 280.894531 C 271.207031 282.085938 269.617188 282.742188 267.917969 282.742188 C 266.222656 282.742188 264.628906 282.085938 263.4375 280.894531 L 200.6875 218.144531 L 197.707031 210.902344 C 197.65625 210.789062 197.589844 210.683594 197.5 210.597656 L 154.683594 167.78125 C 150.636719 163.730469 145.253906 161.5 139.53125 161.5 C 138.8125 161.5 138.085938 161.539062 137.371094 161.613281 L 133.824219 161.96875 C 132.777344 162.074219 131.710938 162.128906 130.652344 162.128906 C 123.867188 162.128906 116.9375 159.902344 111.144531 155.855469 L 82.914062 136.136719 C 78.90625 133.339844 77.007812 128.480469 78.183594 124.046875 Z M 81.835938 137.683594 L 110.070312 157.398438 C 116.261719 161.726562 123.378906 164.011719 130.652344 164.011719 C 131.773438 164.011719 132.90625 163.957031 134.011719 163.84375 L 137.5625 163.484375 C 138.214844 163.417969 138.875 163.382812 139.53125 163.382812 C 144.75 163.382812 149.660156 165.417969 153.351562 169.109375 L 182.605469 198.363281 L 176.433594 204.53125 L 169.203125 207.511719 C 169.203125 207.511719 169.199219 207.511719 169.199219 207.511719 L 169.195312 207.511719 C 169.179688 207.519531 169.167969 207.53125 169.152344 207.535156 C 169.113281 207.554688 169.070312 207.574219 169.035156 207.597656 C 168.980469 207.632812 168.933594 207.671875 168.890625 207.71875 L 106.003906 270.601562 C 102.800781 273.808594 102.800781 279.023438 106.003906 282.226562 C 107.550781 283.773438 109.613281 284.625 111.816406 284.625 C 114.019531 284.625 116.082031 283.773438 117.628906 282.226562 L 180.511719 219.34375 C 180.601562 219.253906 180.667969 219.148438 180.71875 219.035156 L 183.699219 211.792969 L 189.867188 205.625 L 196.039062 211.792969 L 199.015625 219.035156 C 199.0625 219.148438 199.136719 219.253906 199.222656 219.34375 L 262.109375 282.226562 C 263.65625 283.773438 265.71875 284.625 267.917969 284.625 C 270.121094 284.625 272.183594 283.773438 273.730469 282.226562 C 276.933594 279.023438 276.933594 273.808594 273.730469 270.601562 L 210.847656 207.71875 C 210.800781 207.671875 210.753906 207.632812 210.703125 207.597656 C 210.664062 207.574219 210.621094 207.554688 210.582031 207.535156 C 210.566406 207.53125 210.550781 207.519531 210.539062 207.511719 L 210.535156 207.511719 L 203.300781 204.53125 L 197.128906 198.363281 L 226.382812 169.109375 C 230.074219 165.417969 234.980469 163.382812 240.203125 163.382812 C 240.859375 163.382812 241.519531 163.417969 242.171875 163.484375 L 245.722656 163.84375 C 246.828125 163.957031 247.960938 164.011719 249.082031 164.011719 C 256.355469 164.011719 263.472656 161.726562 269.667969 157.398438 L 297.898438 137.683594 C 302.550781 134.433594 304.75 128.757812 303.367188 123.5625 C 298.28125 104.417969 283.8125 89.949219 264.667969 84.863281 C 263.660156 84.59375 262.613281 84.457031 261.558594 84.457031 C 257.230469 84.457031 253.117188 86.652344 250.550781 90.332031 L 230.832031 118.5625 C 225.835938 125.714844 223.550781 134.21875 224.386719 142.507812 L 224.746094 146.058594 C 225.292969 151.472656 223.585938 156.785156 220.042969 160.851562 C 220.042969 160.851562 220.039062 160.855469 220.039062 160.855469 C 220.015625 160.878906 219.996094 160.90625 219.976562 160.933594 C 219.699219 161.246094 219.417969 161.550781 219.121094 161.847656 L 189.867188 191.101562 L 160.613281 161.847656 C 160.320312 161.550781 160.035156 161.246094 159.761719 160.933594 C 159.738281 160.90625 159.722656 160.878906 159.699219 160.855469 C 159.695312 160.855469 159.691406 160.851562 159.691406 160.851562 C 156.148438 156.785156 154.441406 151.46875 154.988281 146.058594 L 155.347656 142.507812 C 156.1875 134.21875 153.898438 125.714844 148.90625 118.5625 L 129.1875 90.332031 C 126.617188 86.652344 122.503906 84.457031 118.175781 84.457031 C 117.121094 84.457031 116.074219 84.59375 115.066406 84.863281 C 95.921875 89.949219 81.453125 104.417969 76.363281 123.5625 C 74.984375 128.757812 77.183594 134.433594 81.835938 137.683594 "/></g><path style=" stroke:none;fill-rule:nonzero;fill:#e8dc08;fill-opacity:1;" d="M 106.214844 115.039062 L 106.542969 114.707031 C 106.648438 114.605469 106.785156 114.546875 106.933594 114.546875 C 107.082031 114.546875 107.21875 114.605469 107.324219 114.707031 L 128.660156 136.046875 C 128.871094 136.257812 128.871094 136.613281 128.660156 136.824219 L 128.328125 137.15625 C 128.125 137.363281 127.757812 137.363281 127.546875 137.15625 L 106.214844 115.820312 C 106 115.609375 106 115.25 106.214844 115.039062 Z M 126.21875 138.488281 C 126.675781 138.945312 127.289062 139.199219 127.941406 139.199219 C 128.589844 139.199219 129.203125 138.945312 129.660156 138.488281 L 129.992188 138.15625 C 130.941406 137.207031 130.941406 135.664062 129.992188 134.714844 L 108.65625 113.378906 C 108.195312 112.917969 107.585938 112.667969 106.933594 112.667969 C 106.28125 112.667969 105.671875 112.917969 105.214844 113.378906 L 104.882812 113.710938 C 103.933594 114.65625 103.933594 116.203125 104.882812 117.152344 L 126.21875 138.488281 "/><path style=" stroke:none;fill-rule:nonzero;fill:#e8dc08;fill-opacity:1;" d="M 118.484375 103.203125 L 118.820312 102.878906 C 118.925781 102.777344 119.058594 102.722656 119.203125 102.722656 C 119.292969 102.722656 119.460938 102.746094 119.605469 102.898438 L 140.273438 124.890625 C 140.476562 125.105469 140.46875 125.457031 140.257812 125.664062 L 139.917969 125.988281 C 139.816406 126.089844 139.679688 126.144531 139.535156 126.144531 C 139.449219 126.144531 139.277344 126.121094 139.136719 125.96875 L 118.464844 103.976562 C 118.265625 103.761719 118.269531 103.40625 118.484375 103.203125 Z M 137.765625 127.257812 C 138.222656 127.746094 138.871094 128.027344 139.535156 128.027344 C 140.171875 128.027344 140.773438 127.785156 141.226562 127.34375 L 141.566406 127.015625 C 142.515625 126.097656 142.554688 124.5625 141.648438 123.597656 L 120.976562 101.605469 C 120.519531 101.117188 119.871094 100.839844 119.203125 100.839844 C 118.566406 100.839844 117.96875 101.082031 117.511719 101.523438 L 117.175781 101.847656 C 116.222656 102.769531 116.1875 104.300781 117.09375 105.265625 L 137.765625 127.257812 "/><path style=" stroke:none;fill-rule:nonzero;fill:#e8dc08;fill-opacity:1;" d="M 94.382812 127.316406 L 94.707031 126.980469 C 94.847656 126.835938 95.015625 126.816406 95.105469 126.816406 C 95.246094 126.816406 95.382812 126.867188 95.480469 126.960938 L 117.472656 147.632812 C 117.582031 147.734375 117.644531 147.871094 117.644531 148.019531 C 117.652344 148.167969 117.597656 148.308594 117.492188 148.417969 L 117.167969 148.75 C 117.027344 148.894531 116.859375 148.917969 116.769531 148.917969 C 116.628906 148.917969 116.496094 148.867188 116.394531 148.769531 L 94.402344 128.101562 C 94.292969 127.996094 94.230469 127.859375 94.230469 127.710938 C 94.222656 127.5625 94.277344 127.421875 94.382812 127.316406 Z M 115.105469 150.140625 C 115.554688 150.566406 116.148438 150.800781 116.769531 150.800781 C 117.429688 150.800781 118.066406 150.53125 118.523438 150.0625 L 118.847656 149.722656 C 119.300781 149.25 119.546875 148.628906 119.527344 147.972656 C 119.511719 147.316406 119.242188 146.710938 118.765625 146.257812 L 96.769531 125.589844 C 96.320312 125.164062 95.726562 124.933594 95.105469 124.933594 C 94.445312 124.933594 93.808594 125.199219 93.355469 125.671875 L 93.027344 126.007812 C 92.570312 126.480469 92.328125 127.101562 92.34375 127.757812 C 92.359375 128.414062 92.632812 129.023438 93.113281 129.472656 L 115.105469 150.140625 "/><g clip-rule="nonzero" clip-path="url(#199106625c)"><path style=" stroke:none;fill-rule:nonzero;fill:#e8dc08;fill-opacity:1;" d="M 244.066406 53.300781 C 241.890625 51.671875 237.855469 52.667969 237.652344 55.726562 C 237.652344 55.839844 237.675781 55.929688 237.71875 56.023438 C 237.5625 57.289062 237.902344 58.628906 238.71875 59.625 C 235.953125 60.28125 233.460938 62.273438 231.035156 63.613281 C 228.113281 65.21875 225.621094 67.351562 223.082031 69.503906 C 220.796875 71.472656 218.4375 73.355469 216.332031 75.53125 C 215.539062 76.34375 214.632812 77.296875 213.863281 78.339844 C 213.839844 78.066406 213.792969 77.796875 213.769531 77.546875 C 213.566406 75.484375 213.363281 73.421875 213.203125 71.359375 C 212.933594 67.691406 212.796875 63.839844 212.070312 60.214844 C 213.089844 59.988281 214.019531 59.441406 214.585938 58.628906 C 215.628906 57.109375 215.425781 54.867188 214.429688 53.394531 C 213.363281 51.808594 211.347656 51.261719 209.785156 52.148438 C 208.898438 52.417969 208.105469 53.007812 207.5625 53.960938 C 206.566406 55.683594 206.882812 58.082031 208.402344 59.421875 C 208.832031 59.804688 209.351562 60.054688 209.898438 60.214844 C 207.292969 63.203125 205.273438 66.535156 203.394531 70.070312 C 202.261719 72.175781 201.21875 74.328125 200.199219 76.480469 C 199.949219 76.980469 199.65625 77.523438 199.359375 78.066406 C 198.070312 73.695312 196.597656 69.414062 195.191406 65.0625 C 194.445312 62.75 193.808594 60.441406 193.21875 58.082031 C 192.835938 56.519531 192.3125 54.867188 191.203125 53.6875 C 191.203125 53.664062 191.226562 53.621094 191.226562 53.597656 C 191.226562 53.574219 191.226562 53.550781 191.226562 53.550781 C 192.292969 53.621094 193.402344 53.300781 194.242188 52.488281 C 196.484375 50.335938 195.507812 46.4375 192.632812 45.441406 C 190.273438 44.625 187.125 45.78125 186.785156 48.5 C 186.558594 50.449219 188.144531 53.484375 190.160156 53.550781 C 188.460938 55.339844 187.398438 57.855469 186.421875 60.054688 C 185.3125 62.523438 184.136719 64.902344 182.957031 67.328125 C 181.847656 69.640625 181.03125 72.0625 179.738281 74.285156 C 179.308594 75.03125 178.808594 75.824219 178.425781 76.640625 C 177.882812 75.597656 177.472656 74.464844 176.996094 73.421875 C 176.160156 71.542969 175.140625 69.773438 174.164062 67.941406 C 172.488281 64.765625 170.855469 60.847656 168.160156 58.265625 C 168.929688 57.789062 169.589844 57.0625 169.996094 56.15625 C 170.992188 53.914062 170.3125 51.21875 168.070312 50.085938 C 167.074219 49.5625 165.894531 49.496094 164.808594 49.769531 C 164.511719 49.699219 164.21875 49.675781 163.902344 49.746094 C 162.722656 49.972656 161.929688 50.921875 161.386719 51.964844 C 160.164062 54.390625 160.820312 57.289062 163.378906 58.515625 C 164.082031 58.855469 164.851562 59.011719 165.578125 59.011719 C 163.945312 62.613281 162.585938 66.351562 161.792969 70.226562 C 161.339844 72.472656 160.75 74.667969 160.253906 76.890625 C 160.050781 77.863281 159.730469 78.996094 159.550781 80.128906 C 157.195312 77.523438 155.269531 74.53125 152.6875 72.132812 C 149.445312 69.117188 145.546875 66.625 141.128906 65.921875 C 141.085938 65.898438 141.015625 65.855469 140.972656 65.832031 C 141.355469 65.265625 141.652344 64.609375 141.808594 63.953125 C 142.46875 61.074219 140.269531 57.8125 137.164062 58.015625 C 136.757812 58.039062 136.371094 58.128906 135.988281 58.289062 C 134.648438 58.648438 133.652344 59.535156 133.199219 60.78125 C 132.542969 62.003906 132.429688 63.40625 133.289062 64.496094 C 133.789062 65.898438 134.761719 67.125 136.167969 67.644531 C 137.617188 68.1875 139 67.78125 140.042969 66.898438 C 140.8125 67.917969 141.921875 68.824219 142.671875 69.820312 C 143.691406 71.226562 144.574219 72.742188 145.34375 74.304688 C 146.976562 77.613281 148.175781 81.148438 149.398438 84.636719 C 150.761719 88.492188 152.210938 92.296875 153.207031 96.261719 C 153.773438 98.503906 154.273438 100.75 154.726562 103.015625 C 155.132812 105.03125 155.15625 107.679688 156.582031 109.265625 C 157.011719 109.742188 157.625 109.652344 158.03125 109.3125 C 160.367188 109.585938 162.769531 108.769531 165.011719 108.179688 C 167.414062 107.546875 169.835938 106.910156 172.285156 106.367188 C 177.382812 105.234375 182.546875 104.621094 187.761719 104.554688 C 192.835938 104.488281 197.933594 104.941406 202.851562 106.230469 C 205.207031 106.84375 207.40625 107.726562 209.648438 108.679688 C 211.210938 109.335938 213.070312 110.355469 214.859375 110.605469 C 215.582031 111.375 217.214844 111.011719 217.375 109.628906 C 217.941406 104.53125 218.664062 99.75 220.230469 94.855469 C 221.816406 89.917969 223.898438 85.136719 226.253906 80.515625 C 228.386719 76.324219 230.765625 72.222656 233.347656 68.300781 C 235.046875 65.742188 237.085938 62.046875 239.964844 60.6875 L 239.988281 60.6875 C 241.800781 61.527344 244.3125 60.757812 245.378906 59.058594 C 246.578125 57.085938 245.785156 54.59375 244.066406 53.300781 Z M 209.421875 55.589844 C 209.464844 54.980469 209.648438 54.480469 209.917969 54.09375 C 210.53125 53.664062 211.1875 53.144531 211.957031 53.414062 C 212.59375 53.640625 213.046875 54.277344 213.296875 54.867188 C 213.90625 56.363281 213.203125 57.742188 211.527344 57.878906 C 210.03125 57.992188 209.308594 57.042969 209.421875 55.589844 Z M 192.878906 48.203125 C 194.035156 50.039062 191.929688 52.351562 190.027344 51.21875 C 189.527344 50.921875 189.1875 50.515625 188.984375 50.085938 C 188.894531 49.789062 188.824219 49.519531 188.800781 49.246094 C 188.800781 48.636719 189.050781 48.046875 189.527344 47.617188 C 190.546875 46.9375 192.246094 47.207031 192.878906 48.203125 Z M 163.019531 54.617188 C 162.996094 54.503906 162.972656 54.414062 162.972656 54.300781 C 163.402344 53.484375 163.699219 52.601562 164.445312 51.988281 C 165.328125 51.285156 166.621094 51.195312 167.59375 51.761719 C 169.382812 52.828125 168.75 55.5 167.050781 56.25 C 165.53125 56.929688 163.402344 56.40625 163.019531 54.617188 Z M 137.527344 65.3125 C 136.304688 65.445312 135.441406 63.859375 135.195312 62.886719 C 135.101562 62.546875 135.082031 62.183594 135.082031 61.867188 C 135.195312 61.527344 135.421875 61.1875 135.761719 60.871094 C 136.644531 60.03125 137.957031 59.828125 138.953125 60.667969 C 139.816406 61.390625 140.179688 62.976562 139.476562 63.953125 C 139.089844 64.425781 138.207031 65.242188 137.527344 65.3125 Z M 223.96875 78.816406 C 218.984375 87.5625 215.015625 97.371094 214.519531 107.5 C 214.132812 107.386719 213.769531 107.273438 213.410156 107.136719 C 212.164062 106.660156 210.960938 106.117188 209.738281 105.597656 C 207.632812 104.691406 205.523438 103.898438 203.304688 103.308594 C 198.226562 101.972656 192.972656 101.472656 187.738281 101.542969 C 182.546875 101.609375 177.472656 102.265625 172.421875 103.488281 C 169.90625 104.101562 167.390625 104.804688 164.898438 105.527344 C 162.835938 106.117188 160.546875 106.59375 158.621094 107.660156 C 158.78125 105.800781 157.988281 103.558594 157.648438 101.902344 C 157.148438 99.546875 156.628906 97.191406 155.949219 94.878906 C 154.746094 90.777344 153.070312 86.835938 151.507812 82.847656 C 150.171875 79.425781 148.765625 76.003906 146.886719 72.832031 C 146.09375 71.496094 145.1875 70.207031 144.210938 69.003906 C 146.726562 70.703125 149.105469 72.605469 151.191406 74.78125 C 154.136719 77.839844 156.105469 81.738281 159.371094 84.503906 C 160.140625 85.160156 161.089844 84.933594 161.660156 84.367188 C 161.839844 84.253906 162 84.09375 162.113281 83.84375 C 162.949219 81.917969 162.859375 79.539062 163.265625 77.457031 C 163.699219 75.210938 164.21875 72.992188 164.605469 70.75 C 165.285156 66.808594 166.304688 62.886719 166.710938 58.921875 C 166.757812 58.921875 166.777344 58.898438 166.824219 58.898438 C 167.753906 60.574219 168.773438 62.183594 169.609375 63.929688 C 170.609375 66.011719 171.515625 68.144531 172.464844 70.25 C 174.050781 73.71875 175.070312 77.953125 177.609375 80.878906 C 177.632812 80.921875 177.675781 80.945312 177.699219 80.992188 C 178.199219 81.917969 180.011719 81.804688 180.191406 80.628906 C 180.554688 78.292969 181.777344 76.617188 182.84375 74.554688 C 183.976562 72.359375 184.835938 69.980469 185.855469 67.734375 C 186.855469 65.539062 187.691406 63.292969 188.53125 61.027344 C 189.277344 59.011719 190.160156 56.996094 190.820312 54.957031 C 191.292969 56.453125 191.476562 57.992188 191.726562 59.554688 C 192.109375 61.957031 192.722656 64.3125 193.378906 66.671875 C 194.785156 71.769531 196.484375 76.84375 197.527344 82.011719 C 197.617188 82.417969 197.820312 82.691406 198.09375 82.847656 C 198.363281 83.390625 199.15625 83.550781 199.65625 83.277344 C 201.378906 82.351562 202.101562 79.519531 202.941406 77.839844 C 203.9375 75.777344 204.933594 73.71875 205.953125 71.65625 C 207.519531 68.460938 209.105469 65.265625 210.644531 62.070312 C 210.417969 65.199219 210.847656 68.4375 210.960938 71.519531 C 211.03125 73.492188 211.234375 75.4375 211.414062 77.386719 C 211.574219 79.179688 211.257812 81.398438 212.003906 83.03125 C 212.070312 83.164062 212.164062 83.257812 212.277344 83.324219 C 212.523438 84.003906 213.476562 84.367188 214.042969 83.753906 C 215.789062 81.851562 216.898438 79.496094 218.734375 77.613281 C 220.726562 75.574219 222.949219 73.785156 225.121094 71.925781 C 227.457031 69.933594 229.65625 67.894531 232.148438 66.082031 C 232.351562 65.921875 232.578125 65.765625 232.78125 65.605469 C 232.53125 65.945312 232.28125 66.261719 232.035156 66.578125 C 229.042969 70.363281 226.390625 74.554688 223.96875 78.816406 Z M 244.109375 57.246094 C 243.792969 58.039062 242.546875 58.421875 241.800781 58.515625 C 240.347656 58.71875 239.578125 57.675781 239.601562 56.292969 C 239.601562 55.929688 239.667969 55.613281 239.761719 55.320312 C 240.214844 54.820312 240.6875 54.34375 241.390625 54.230469 C 242.207031 54.117188 243 54.546875 243.519531 55.160156 C 243.953125 55.703125 244.382812 56.566406 244.109375 57.246094 Z M 244.109375 57.246094 "/></g><g style="fill:#000000;fill-opacity:0.4;"><g transform="translate(165.590648, 312.682823)"><path style="stroke:none" d="M 49.359375 -56.125 C 49.828125 -56.125 50.195312 -55.972656 50.46875 -55.671875 C 50.75 -55.378906 50.890625 -55.078125 50.890625 -54.765625 C 50.890625 -54.453125 50.644531 -53.875 50.15625 -53.03125 C 49.664062 -52.195312 48.546875 -50.375 46.796875 -47.5625 C 45.054688 -44.757812 43.695312 -42.5625 42.71875 -40.96875 C 37.050781 -31.75 32.609375 -23.957031 29.390625 -17.59375 C 26.171875 -11.226562 24.5625 -7.382812 24.5625 -6.0625 L 24.5625 -5.765625 C 24.5625 -4.742188 24.9375 -4.234375 25.6875 -4.234375 C 26.4375 -4.234375 27.34375 -4.582031 28.40625 -5.28125 C 29.46875 -5.976562 30.394531 -6.722656 31.1875 -7.515625 C 31.988281 -8.316406 32.796875 -9.148438 33.609375 -10.015625 C 34.421875 -10.878906 34.910156 -11.382812 35.078125 -11.53125 C 35.253906 -11.675781 35.484375 -11.75 35.765625 -11.75 C 36.179688 -11.75 36.453125 -11.476562 36.578125 -10.9375 C 36.703125 -10.40625 36.765625 -9.660156 36.765625 -8.703125 C 36.765625 -7.742188 36.691406 -7.113281 36.546875 -6.8125 C 35.816406 -5.414062 34.222656 -3.710938 31.765625 -1.703125 C 29.304688 0.304688 26.976562 1.3125 24.78125 1.3125 C 21.039062 1.3125 19.171875 -0.269531 19.171875 -3.4375 C 19.171875 -5.414062 19.921875 -8.003906 21.421875 -11.203125 C 19.398438 -8.578125 17.335938 -6.34375 15.234375 -4.5 C 11.347656 -1.101562 7.96875 0.59375 5.09375 0.59375 C 3.5 0.59375 2.316406 0.0351562 1.546875 -1.078125 C 0.785156 -2.203125 0.40625 -3.816406 0.40625 -5.921875 C 0.40625 -8.035156 1.226562 -10.566406 2.875 -13.515625 C 4.53125 -16.460938 6.585938 -19.113281 9.046875 -21.46875 C 11.503906 -23.832031 14.226562 -25.804688 17.21875 -27.390625 C 20.21875 -28.972656 22.976562 -29.765625 25.5 -29.765625 C 26.300781 -29.765625 27.238281 -29.28125 28.3125 -28.3125 C 29.03125 -29.457031 30.363281 -31.753906 32.3125 -35.203125 C 38.425781 -45.503906 42.472656 -51.796875 44.453125 -54.078125 C 45.492188 -55.441406 47.128906 -56.125 49.359375 -56.125 Z M 26.03125 -24.78125 C 22.425781 -23.988281 19.078125 -22.316406 15.984375 -19.765625 C 12.890625 -17.222656 10.566406 -14.554688 9.015625 -11.765625 C 7.472656 -8.984375 6.703125 -7.179688 6.703125 -6.359375 C 6.703125 -5.535156 6.878906 -5.125 7.234375 -5.125 C 8.722656 -5.125 12.425781 -8.472656 18.34375 -15.171875 C 21.289062 -18.460938 23.851562 -21.664062 26.03125 -24.78125 Z M 26.03125 -24.78125 "/></g></g><g style="fill:#ff9600;fill-opacity:1;"><g transform="translate(162.200898, 309.293073)"><path style="stroke:none" d="M 49.359375 -56.125 C 49.828125 -56.125 50.195312 -55.972656 50.46875 -55.671875 C 50.75 -55.378906 50.890625 -55.078125 50.890625 -54.765625 C 50.890625 -54.453125 50.644531 -53.875 50.15625 -53.03125 C 49.664062 -52.195312 48.546875 -50.375 46.796875 -47.5625 C 45.054688 -44.757812 43.695312 -42.5625 42.71875 -40.96875 C 37.050781 -31.75 32.609375 -23.957031 29.390625 -17.59375 C 26.171875 -11.226562 24.5625 -7.382812 24.5625 -6.0625 L 24.5625 -5.765625 C 24.5625 -4.742188 24.9375 -4.234375 25.6875 -4.234375 C 26.4375 -4.234375 27.34375 -4.582031 28.40625 -5.28125 C 29.46875 -5.976562 30.394531 -6.722656 31.1875 -7.515625 C 31.988281 -8.316406 32.796875 -9.148438 33.609375 -10.015625 C 34.421875 -10.878906 34.910156 -11.382812 35.078125 -11.53125 C 35.253906 -11.675781 35.484375 -11.75 35.765625 -11.75 C 36.179688 -11.75 36.453125 -11.476562 36.578125 -10.9375 C 36.703125 -10.40625 36.765625 -9.660156 36.765625 -8.703125 C 36.765625 -7.742188 36.691406 -7.113281 36.546875 -6.8125 C 35.816406 -5.414062 34.222656 -3.710938 31.765625 -1.703125 C 29.304688 0.304688 26.976562 1.3125 24.78125 1.3125 C 21.039062 1.3125 19.171875 -0.269531 19.171875 -3.4375 C 19.171875 -5.414062 19.921875 -8.003906 21.421875 -11.203125 C 19.398438 -8.578125 17.335938 -6.34375 15.234375 -4.5 C 11.347656 -1.101562 7.96875 0.59375 5.09375 0.59375 C 3.5 0.59375 2.316406 0.0351562 1.546875 -1.078125 C 0.785156 -2.203125 0.40625 -3.816406 0.40625 -5.921875 C 0.40625 -8.035156 1.226562 -10.566406 2.875 -13.515625 C 4.53125 -16.460938 6.585938 -19.113281 9.046875 -21.46875 C 11.503906 -23.832031 14.226562 -25.804688 17.21875 -27.390625 C 20.21875 -28.972656 22.976562 -29.765625 25.5 -29.765625 C 26.300781 -29.765625 27.238281 -29.28125 28.3125 -28.3125 C 29.03125 -29.457031 30.363281 -31.753906 32.3125 -35.203125 C 38.425781 -45.503906 42.472656 -51.796875 44.453125 -54.078125 C 45.492188 -55.441406 47.128906 -56.125 49.359375 -56.125 Z M 26.03125 -24.78125 C 22.425781 -23.988281 19.078125 -22.316406 15.984375 -19.765625 C 12.890625 -17.222656 10.566406 -14.554688 9.015625 -11.765625 C 7.472656 -8.984375 6.703125 -7.179688 6.703125 -6.359375 C 6.703125 -5.535156 6.878906 -5.125 7.234375 -5.125 C 8.722656 -5.125 12.425781 -8.472656 18.34375 -15.171875 C 21.289062 -18.460938 23.851562 -21.664062 26.03125 -24.78125 Z M 26.03125 -24.78125 "/></g></g><g style="fill:#000000;fill-opacity:0.4;"><g transform="translate(58.26445, 227.190417)"><path style="stroke:none" d="M 43.359375 -21.828125 C 43.960938 -21.828125 44.265625 -21.347656 44.265625 -20.390625 C 44.265625 -19.429688 44.050781 -17.773438 43.625 -15.421875 C 43.300781 -13.847656 41.503906 -11.601562 38.234375 -8.6875 C 34.285156 -5.1875 29.953125 -2.691406 25.234375 -1.203125 C 22.390625 -0.296875 19.613281 0.15625 16.90625 0.15625 C 14.195312 0.15625 11.722656 -0.984375 9.484375 -3.265625 C 7.253906 -5.554688 6.140625 -8.265625 6.140625 -11.390625 C 6.140625 -14.523438 6.769531 -17.769531 8.03125 -21.125 C 9.289062 -24.488281 10.988281 -27.695312 13.125 -30.75 C 15.257812 -33.8125 17.78125 -36.753906 20.6875 -39.578125 C 23.59375 -42.398438 26.617188 -44.847656 29.765625 -46.921875 C 32.910156 -48.992188 36.207031 -50.640625 39.65625 -51.859375 C 43.101562 -53.085938 46.375 -53.703125 49.46875 -53.703125 C 51.914062 -53.703125 54 -52.8125 55.71875 -51.03125 C 56.613281 -50.082031 57.0625 -48.890625 57.0625 -47.453125 C 57.0625 -46.023438 56.363281 -44.21875 54.96875 -42.03125 C 53.570312 -39.84375 51.914062 -37.847656 50 -36.046875 C 48.09375 -34.253906 46.125 -32.734375 44.09375 -31.484375 C 42.0625 -30.242188 40.429688 -29.625 39.203125 -29.625 C 37.984375 -29.625 36.9375 -30.003906 36.0625 -30.765625 C 35.1875 -31.523438 34.75 -32.203125 34.75 -32.796875 C 34.75 -33.398438 34.878906 -34.0625 35.140625 -34.78125 C 35.398438 -35.507812 35.734375 -35.875 36.140625 -35.875 C 36.035156 -35.75 35.984375 -35.625 35.984375 -35.5 C 35.984375 -35.195312 36.410156 -35.046875 37.265625 -35.046875 C 38.128906 -35.046875 39.570312 -35.804688 41.59375 -37.328125 C 43.625 -38.847656 45.457031 -40.554688 47.09375 -42.453125 C 48.726562 -44.359375 49.546875 -45.785156 49.546875 -46.734375 C 49.546875 -47.378906 49.109375 -47.703125 48.234375 -47.703125 C 45.878906 -47.703125 42.632812 -46.609375 38.5 -44.421875 C 34.375 -42.242188 30.425781 -39.429688 26.65625 -35.984375 C 22.882812 -32.535156 19.609375 -28.445312 16.828125 -23.71875 C 14.046875 -18.988281 12.65625 -14.738281 12.65625 -10.96875 C 12.65625 -9.394531 13.070312 -8.132812 13.90625 -7.1875 C 14.75 -6.238281 16.035156 -5.765625 17.765625 -5.765625 C 19.503906 -5.765625 21.554688 -6.265625 23.921875 -7.265625 C 26.296875 -8.265625 28.550781 -9.488281 30.6875 -10.9375 C 32.820312 -12.382812 34.835938 -13.867188 36.734375 -15.390625 C 38.628906 -16.910156 40.144531 -18.242188 41.28125 -19.390625 C 42.414062 -20.546875 42.992188 -21.238281 43.015625 -21.46875 C 43.046875 -21.707031 43.160156 -21.828125 43.359375 -21.828125 Z M 43.359375 -21.828125 "/></g></g><g style="fill:#ff9600;fill-opacity:1;"><g transform="translate(54.874702, 223.800665)"><path style="stroke:none" d="M 43.359375 -21.828125 C 43.960938 -21.828125 44.265625 -21.347656 44.265625 -20.390625 C 44.265625 -19.429688 44.050781 -17.773438 43.625 -15.421875 C 43.300781 -13.847656 41.503906 -11.601562 38.234375 -8.6875 C 34.285156 -5.1875 29.953125 -2.691406 25.234375 -1.203125 C 22.390625 -0.296875 19.613281 0.15625 16.90625 0.15625 C 14.195312 0.15625 11.722656 -0.984375 9.484375 -3.265625 C 7.253906 -5.554688 6.140625 -8.265625 6.140625 -11.390625 C 6.140625 -14.523438 6.769531 -17.769531 8.03125 -21.125 C 9.289062 -24.488281 10.988281 -27.695312 13.125 -30.75 C 15.257812 -33.8125 17.78125 -36.753906 20.6875 -39.578125 C 23.59375 -42.398438 26.617188 -44.847656 29.765625 -46.921875 C 32.910156 -48.992188 36.207031 -50.640625 39.65625 -51.859375 C 43.101562 -53.085938 46.375 -53.703125 49.46875 -53.703125 C 51.914062 -53.703125 54 -52.8125 55.71875 -51.03125 C 56.613281 -50.082031 57.0625 -48.890625 57.0625 -47.453125 C 57.0625 -46.023438 56.363281 -44.21875 54.96875 -42.03125 C 53.570312 -39.84375 51.914062 -37.847656 50 -36.046875 C 48.09375 -34.253906 46.125 -32.734375 44.09375 -31.484375 C 42.0625 -30.242188 40.429688 -29.625 39.203125 -29.625 C 37.984375 -29.625 36.9375 -30.003906 36.0625 -30.765625 C 35.1875 -31.523438 34.75 -32.203125 34.75 -32.796875 C 34.75 -33.398438 34.878906 -34.0625 35.140625 -34.78125 C 35.398438 -35.507812 35.734375 -35.875 36.140625 -35.875 C 36.035156 -35.75 35.984375 -35.625 35.984375 -35.5 C 35.984375 -35.195312 36.410156 -35.046875 37.265625 -35.046875 C 38.128906 -35.046875 39.570312 -35.804688 41.59375 -37.328125 C 43.625 -38.847656 45.457031 -40.554688 47.09375 -42.453125 C 48.726562 -44.359375 49.546875 -45.785156 49.546875 -46.734375 C 49.546875 -47.378906 49.109375 -47.703125 48.234375 -47.703125 C 45.878906 -47.703125 42.632812 -46.609375 38.5 -44.421875 C 34.375 -42.242188 30.425781 -39.429688 26.65625 -35.984375 C 22.882812 -32.535156 19.609375 -28.445312 16.828125 -23.71875 C 14.046875 -18.988281 12.65625 -14.738281 12.65625 -10.96875 C 12.65625 -9.394531 13.070312 -8.132812 13.90625 -7.1875 C 14.75 -6.238281 16.035156 -5.765625 17.765625 -5.765625 C 19.503906 -5.765625 21.554688 -6.265625 23.921875 -7.265625 C 26.296875 -8.265625 28.550781 -9.488281 30.6875 -10.9375 C 32.820312 -12.382812 34.835938 -13.867188 36.734375 -15.390625 C 38.628906 -16.910156 40.144531 -18.242188 41.28125 -19.390625 C 42.414062 -20.546875 42.992188 -21.238281 43.015625 -21.46875 C 43.046875 -21.707031 43.160156 -21.828125 43.359375 -21.828125 Z M 43.359375 -21.828125 "/></g></g><g style="fill:#000000;fill-opacity:0.4;"><g transform="translate(272.232906, 227.190417)"><path style="stroke:none" d="M 10.21875 -10.296875 L 9.734375 -9.28125 C 9.734375 -8.5625 10.75 -7.867188 12.78125 -7.203125 C 14.820312 -6.546875 17.054688 -6.21875 19.484375 -6.21875 C 21.921875 -6.21875 24.597656 -6.578125 27.515625 -7.296875 C 30.441406 -8.023438 32.984375 -8.910156 35.140625 -9.953125 C 37.296875 -11.003906 39.078125 -12.101562 40.484375 -13.25 C 41.898438 -14.40625 42.609375 -15.40625 42.609375 -16.25 C 42.609375 -17.320312 41.359375 -18.316406 38.859375 -19.234375 C 36.367188 -20.160156 32.742188 -21.179688 27.984375 -22.296875 C 23.234375 -23.410156 19.753906 -24.816406 17.546875 -26.515625 C 15.335938 -28.210938 14.234375 -30.273438 14.234375 -32.703125 C 14.234375 -35.140625 15.101562 -37.46875 16.84375 -39.6875 C 18.59375 -41.914062 20.867188 -43.890625 23.671875 -45.609375 C 26.484375 -47.328125 29.550781 -48.863281 32.875 -50.21875 C 39.738281 -52.988281 46.101562 -54.375 51.96875 -54.375 C 54.21875 -54.375 56.203125 -54.171875 57.921875 -53.765625 C 61.222656 -52.992188 62.875 -51.972656 62.875 -50.703125 C 62.875 -49.429688 62.757812 -48.5625 62.53125 -48.09375 C 62.3125 -47.632812 62.128906 -47.328125 61.984375 -47.171875 C 61.847656 -47.023438 61.671875 -46.875 61.453125 -46.71875 C 61.242188 -46.570312 61.09375 -46.460938 61 -46.390625 C 59.894531 -45.472656 56.882812 -44.898438 51.96875 -44.671875 C 50.269531 -44.597656 49.347656 -44.507812 49.203125 -44.40625 C 49.054688 -44.3125 48.925781 -44.265625 48.8125 -44.265625 C 48.695312 -44.265625 48.5625 -44.363281 48.40625 -44.5625 C 48.257812 -44.757812 48.1875 -45.082031 48.1875 -45.53125 C 48.1875 -45.976562 48.675781 -46.800781 49.65625 -48 C 46.601562 -47.832031 43.347656 -47.132812 39.890625 -45.90625 C 36.441406 -44.6875 33.441406 -43.304688 30.890625 -41.765625 C 28.347656 -40.234375 26.226562 -38.722656 24.53125 -37.234375 C 22.832031 -35.753906 21.984375 -34.707031 21.984375 -34.09375 C 21.984375 -33.476562 22.171875 -32.972656 22.546875 -32.578125 C 23.585938 -31.453125 26.492188 -30.28125 31.265625 -29.0625 C 36.210938 -27.78125 39.507812 -26.753906 41.15625 -25.984375 C 42.800781 -25.210938 44.164062 -24.476562 45.25 -23.78125 C 46.332031 -23.082031 47.203125 -22.367188 47.859375 -21.640625 C 49.378906 -19.890625 50.140625 -18.113281 50.140625 -16.3125 C 50.140625 -14.519531 49.65625 -12.835938 48.6875 -11.265625 C 47.726562 -9.691406 46.28125 -8.171875 44.34375 -6.703125 C 42.414062 -5.234375 40.140625 -3.921875 37.515625 -2.765625 C 31.773438 -0.203125 24.9375 1.078125 17 1.078125 C 11.207031 1.078125 7.515625 -0.453125 5.921875 -3.515625 C 5.492188 -4.296875 5.28125 -5.101562 5.28125 -5.9375 C 5.28125 -6.769531 5.472656 -7.523438 5.859375 -8.203125 C 6.242188 -8.878906 6.710938 -9.390625 7.265625 -9.734375 C 8.335938 -10.410156 9.097656 -10.75 9.546875 -10.75 C 9.992188 -10.75 10.21875 -10.597656 10.21875 -10.296875 Z M 10.21875 -10.296875 "/></g></g><g style="fill:#ff9600;fill-opacity:1;"><g transform="translate(268.84317, 223.800665)"><path style="stroke:none" d="M 10.21875 -10.296875 L 9.734375 -9.28125 C 9.734375 -8.5625 10.75 -7.867188 12.78125 -7.203125 C 14.820312 -6.546875 17.054688 -6.21875 19.484375 -6.21875 C 21.921875 -6.21875 24.597656 -6.578125 27.515625 -7.296875 C 30.441406 -8.023438 32.984375 -8.910156 35.140625 -9.953125 C 37.296875 -11.003906 39.078125 -12.101562 40.484375 -13.25 C 41.898438 -14.40625 42.609375 -15.40625 42.609375 -16.25 C 42.609375 -17.320312 41.359375 -18.316406 38.859375 -19.234375 C 36.367188 -20.160156 32.742188 -21.179688 27.984375 -22.296875 C 23.234375 -23.410156 19.753906 -24.816406 17.546875 -26.515625 C 15.335938 -28.210938 14.234375 -30.273438 14.234375 -32.703125 C 14.234375 -35.140625 15.101562 -37.46875 16.84375 -39.6875 C 18.59375 -41.914062 20.867188 -43.890625 23.671875 -45.609375 C 26.484375 -47.328125 29.550781 -48.863281 32.875 -50.21875 C 39.738281 -52.988281 46.101562 -54.375 51.96875 -54.375 C 54.21875 -54.375 56.203125 -54.171875 57.921875 -53.765625 C 61.222656 -52.992188 62.875 -51.972656 62.875 -50.703125 C 62.875 -49.429688 62.757812 -48.5625 62.53125 -48.09375 C 62.3125 -47.632812 62.128906 -47.328125 61.984375 -47.171875 C 61.847656 -47.023438 61.671875 -46.875 61.453125 -46.71875 C 61.242188 -46.570312 61.09375 -46.460938 61 -46.390625 C 59.894531 -45.472656 56.882812 -44.898438 51.96875 -44.671875 C 50.269531 -44.597656 49.347656 -44.507812 49.203125 -44.40625 C 49.054688 -44.3125 48.925781 -44.265625 48.8125 -44.265625 C 48.695312 -44.265625 48.5625 -44.363281 48.40625 -44.5625 C 48.257812 -44.757812 48.1875 -45.082031 48.1875 -45.53125 C 48.1875 -45.976562 48.675781 -46.800781 49.65625 -48 C 46.601562 -47.832031 43.347656 -47.132812 39.890625 -45.90625 C 36.441406 -44.6875 33.441406 -43.304688 30.890625 -41.765625 C 28.347656 -40.234375 26.226562 -38.722656 24.53125 -37.234375 C 22.832031 -35.753906 21.984375 -34.707031 21.984375 -34.09375 C 21.984375 -33.476562 22.171875 -32.972656 22.546875 -32.578125 C 23.585938 -31.453125 26.492188 -30.28125 31.265625 -29.0625 C 36.210938 -27.78125 39.507812 -26.753906 41.15625 -25.984375 C 42.800781 -25.210938 44.164062 -24.476562 45.25 -23.78125 C 46.332031 -23.082031 47.203125 -22.367188 47.859375 -21.640625 C 49.378906 -19.890625 50.140625 -18.113281 50.140625 -16.3125 C 50.140625 -14.519531 49.65625 -12.835938 48.6875 -11.265625 C 47.726562 -9.691406 46.28125 -8.171875 44.34375 -6.703125 C 42.414062 -5.234375 40.140625 -3.921875 37.515625 -2.765625 C 31.773438 -0.203125 24.9375 1.078125 17 1.078125 C 11.207031 1.078125 7.515625 -0.453125 5.921875 -3.515625 C 5.492188 -4.296875 5.28125 -5.101562 5.28125 -5.9375 C 5.28125 -6.769531 5.472656 -7.523438 5.859375 -8.203125 C 6.242188 -8.878906 6.710938 -9.390625 7.265625 -9.734375 C 8.335938 -10.410156 9.097656 -10.75 9.546875 -10.75 C 9.992188 -10.75 10.21875 -10.597656 10.21875 -10.296875 Z M 10.21875 -10.296875 "/></g></g></g></svg>